<svg width="196" height="197" viewBox="0 0 196 197" fill="none" xmlns="http://www.w3.org/2000/svg">
<g filter="url(#filter0_d_149_864)">
<path d="M4 174.814C4 120.947 4 67.0851 4 13.2182C5.02082 9.61274 6.34527 6.05441 9.52814 3.86707C11.8734 2.25536 14.648 1.26635 17.2288 0C48.089 0 78.9545 0 109.815 0C109.909 0.0732599 109.993 0.193615 110.097 0.21978C119.039 2.63736 123.106 7.933 123.112 17.2004C123.112 19.8744 123.112 22.5483 123.112 25.3636C124.07 25.3218 124.797 25.3165 125.514 25.2537C131.545 24.7304 137.513 25.259 143.371 26.6561C174.346 34.0397 194.59 61.6534 191.732 93.4011C189.727 115.683 178.283 132.208 158.804 143.077C149.02 148.534 138.34 150.628 127.184 150.455C125.87 150.434 124.551 150.45 123.112 150.45C123.112 151.433 123.112 152.098 123.112 152.763C123.112 159.126 123.143 165.489 123.101 171.857C123.044 181.35 116.364 187.995 106.878 188.027C99.8997 188.048 92.9214 188.032 85.9432 188.032C64.0871 188.032 42.2311 188.042 20.375 188.027C12.177 188.021 6.27722 183.364 4.32457 175.431C4.26698 175.217 4.10993 175.018 4 174.814ZM88.2414 135.301C88.0424 134.955 88.0006 134.835 87.9168 134.751C87.7022 134.531 87.4771 134.327 87.252 134.118C75.6983 123.427 68.5997 110.324 67.1915 94.6413C64.8515 68.5346 75.1068 48.3411 97.0833 34.1286C102.669 30.518 108.862 28.2208 115.359 26.7608C116.139 26.5829 117.238 26.5829 116.652 25.1543C81.2631 25.1543 45.8485 25.1543 10.3762 25.1543C10.3762 71.1196 10.3762 116.975 10.3762 162.862C45.9061 162.862 81.3102 162.862 116.678 162.862C116.678 158.665 116.678 154.605 116.678 150.455C115.788 150.455 115.055 150.455 114.322 150.455C98.9574 150.455 83.5875 150.455 68.2228 150.45C67.4899 150.45 66.7465 150.434 66.0346 150.303C64.5949 150.031 63.5846 149.016 63.6788 147.666C63.7521 146.609 64.5007 145.478 65.2388 144.636C65.7466 144.06 66.7518 143.909 67.5475 143.589C74.4053 140.837 81.2579 138.095 88.2414 135.301ZM84.0167 143.746C84.022 143.867 84.0272 143.992 84.0377 144.113C84.4408 144.134 84.8439 144.165 85.2522 144.165C99.8211 144.165 114.39 144.223 128.959 144.123C132.43 144.097 135.932 143.773 139.361 143.213C170.389 138.168 191.627 106.478 184.581 75.8449C177.069 43.1867 145.203 24.4897 112.94 33.8094C91.0578 40.1307 74.1802 61.2557 73.1384 83.9192C72.2118 104.108 79.7293 120.518 95.7326 132.967C98.7846 135.342 98.4496 137.959 94.8898 139.398C91.2672 140.868 87.6393 142.297 84.0167 143.746ZM10.4181 169.335C9.18787 177.582 14.6637 181.91 21.3069 181.862C49.7119 181.664 78.1221 181.784 106.527 181.773C113.741 181.773 118.039 176.483 116.594 169.335C81.2474 169.335 45.8799 169.335 10.4181 169.335ZM10.3396 18.6446C45.8956 18.6446 81.3102 18.6446 116.704 18.6446C117.568 10.5599 113.746 6.25325 105.836 6.25325C90.1626 6.25325 74.4891 6.25325 58.8155 6.25325C45.9584 6.25325 33.1013 6.26372 20.2442 6.24802C16.6006 6.24279 13.7161 7.63473 11.7059 10.7064C10.1406 13.0978 10.1354 15.7718 10.3396 18.6446Z" fill="#623518"/>
<path d="M63.5585 178.602C60.5641 178.602 57.5697 178.634 54.5805 178.592C52.3766 178.56 51.0417 177.341 51.0469 175.483C51.0521 173.647 52.4185 172.365 54.5962 172.349C60.585 172.307 66.5686 172.307 72.5574 172.349C74.7718 172.365 76.0701 173.61 76.0649 175.499C76.0596 177.414 74.8085 178.56 72.547 178.592C69.5473 178.634 66.5529 178.602 63.5585 178.602Z" fill="#623518"/>
<path d="M72.882 9.42428C75.8765 9.42428 78.8656 9.39812 81.86 9.43475C84.0849 9.46091 85.4512 10.6174 85.5141 12.4384C85.5769 14.3065 84.132 15.6671 81.8757 15.6828C75.9497 15.7194 70.029 15.7194 64.103 15.6828C61.7891 15.6671 60.4542 14.406 60.4961 12.4489C60.538 10.565 61.8153 9.45568 64.0925 9.42952C67.0189 9.39812 69.9505 9.42428 72.882 9.42428Z" fill="#623518"/>
<path d="M47.9735 9.48181C49.1356 9.48181 50.303 9.38762 51.4495 9.50274C53.0619 9.67019 53.978 10.7115 54.0932 12.2971C54.2083 13.8774 53.4807 15.2798 51.9049 15.4263C49.256 15.6723 46.5496 15.667 43.8954 15.4316C42.3145 15.2903 41.6182 13.8931 41.6653 12.318C41.7124 10.7848 42.8798 9.60739 44.4922 9.48181C45.6439 9.39285 46.8113 9.46611 47.9735 9.46611C47.9735 9.47134 47.9735 9.47657 47.9735 9.48181Z" fill="#623518"/>
<path d="M124.797 66.0908C123.394 64.6989 121.965 63.3279 120.594 61.9045C117.353 58.5346 117.955 53.1761 121.855 50.7429C124.101 49.3405 126.467 49.2306 128.865 50.3609C129.305 50.5702 129.629 50.6068 130.085 50.3766C133.205 48.8067 136.927 49.712 139.042 52.5116C141.104 55.2431 140.947 59.105 138.607 61.6533C137.393 62.9773 136.084 64.2174 134.807 65.4838C134.608 65.6826 134.351 65.8292 134.121 66.0019C134.158 66.096 134.199 66.1902 134.236 66.2844C134.524 66.2844 134.807 66.2844 135.095 66.2844C142.816 66.2844 150.533 66.2949 158.254 66.2792C161.688 66.274 164.259 67.7078 165.709 70.8422C166.154 71.8051 166.368 72.9458 166.395 74.0133C166.478 77.6868 166.431 81.3655 166.426 85.0389C166.421 86.996 165.761 88.7019 164.505 90.1985C164.301 90.4445 164.159 90.8317 164.159 91.1509C164.138 98.4507 164.175 105.751 164.133 113.05C164.107 117.702 160.788 120.947 156.15 120.947C138.387 120.952 120.625 120.952 102.868 120.947C98.1462 120.947 94.8586 117.676 94.8376 112.935C94.8115 107.566 94.8429 102.192 94.8115 96.8233C94.8062 96.3838 94.6021 95.8709 94.3246 95.5151C93.1991 94.0604 92.5604 92.4487 92.5604 90.6119C92.55 85.0599 92.529 79.5078 92.5657 73.9558C92.5918 69.7957 95.7485 66.5461 99.9208 66.3106C100.313 66.2897 100.701 66.2844 101.093 66.2844C108.658 66.2844 116.223 66.2844 123.782 66.2844C124.091 66.2844 124.394 66.2844 124.703 66.2844C124.735 66.2164 124.766 66.1536 124.797 66.0908ZM129.535 70.0364C120.044 70.0364 110.553 70.0364 101.057 70.0364C100.69 70.0364 100.324 70.0364 99.9627 70.0625C97.9263 70.2195 96.3349 71.826 96.3244 73.8616C96.293 79.466 96.2982 85.0703 96.3244 90.6747C96.3349 92.6161 97.8216 94.2383 99.7114 94.4895C101.654 94.7511 103.528 93.5685 104.051 91.6951C104.219 91.1038 104.24 90.4602 104.276 89.8375C104.517 85.9442 107.805 82.747 111.705 82.6318C116.097 82.501 119.589 85.871 119.672 90.3922C119.725 93.1028 119.662 95.8134 119.693 98.524C119.72 100.921 121.426 102.658 123.682 102.647C125.939 102.637 127.609 100.879 127.619 98.4769C127.63 96.86 127.598 95.243 127.63 93.6313C127.708 89.7119 130.65 86.5722 134.644 86.1117C138.309 85.6878 141.953 88.2519 142.79 91.962C143.052 93.1132 143.01 94.3377 143.062 95.5308C143.136 97.2001 143.895 98.4193 145.402 99.1153C147.889 100.261 150.773 98.5606 150.957 95.8291C151.056 94.343 151.328 92.9406 152.239 91.7213C153.768 89.6857 155.857 88.9793 158.333 89.0264C161.065 89.0787 162.673 87.4408 162.678 84.7354C162.683 81.2451 162.683 77.7496 162.678 74.2593C162.678 73.9244 162.673 73.579 162.605 73.2493C162.196 71.2138 160.636 70.0364 158.333 70.0364C148.727 70.0311 139.131 70.0364 129.535 70.0364ZM98.5859 98.3042C98.5859 98.4403 98.5859 98.7176 98.5859 98.995C98.5859 103.584 98.5807 108.173 98.5859 112.763C98.5911 115.646 100.151 117.195 103.041 117.195C120.672 117.195 138.304 117.195 155.935 117.195C158.825 117.195 160.385 115.646 160.385 112.757C160.39 106.342 160.385 99.9316 160.385 93.5162C160.385 93.2388 160.364 92.9615 160.353 92.7993C159.516 92.7993 158.767 92.7993 158.019 92.7993C155.804 92.7993 154.831 93.7255 154.71 95.939C154.496 99.8479 151.527 102.857 147.538 103.218C143.848 103.548 140.272 100.915 139.508 97.2001C139.283 96.1169 139.345 94.9709 139.293 93.8563C139.188 91.5225 137.461 89.7956 135.257 89.8375C133.043 89.8793 131.373 91.6428 131.362 93.9819C131.352 95.6773 131.399 97.3728 131.341 99.063C131.179 103.657 126.865 107.101 122.347 106.284C118.495 105.588 115.956 102.485 115.924 98.4036C115.903 95.6669 115.956 92.9301 115.893 90.1933C115.846 88.0478 114.108 86.41 112.003 86.389C109.893 86.3681 108.176 87.9641 108.009 90.1044C107.977 90.5177 107.946 90.9364 107.904 91.3498C107.585 94.568 105.24 97.3414 102.093 98.0426C101.004 98.2833 99.8423 98.2205 98.5859 98.3042ZM129.451 65.4105C131.645 63.2494 133.844 61.1772 135.932 59.0003C137.126 57.7496 136.974 55.6931 135.786 54.4425C134.566 53.1552 132.587 53.0035 131.168 54.0867C129.661 55.2379 129.357 55.2379 127.834 54.0919C126.394 53.0087 124.436 53.15 123.216 54.432C121.981 55.7298 121.892 57.8124 123.143 59.1102C125.201 61.2504 127.336 63.3122 129.451 65.4105Z" fill="#623518"/>
</g>
<defs>
<filter id="filter0_d_149_864" x="0" y="0" width="196" height="196.038" filterUnits="userSpaceOnUse" color-interpolation-filters="sRGB">
<feFlood flood-opacity="0" result="BackgroundImageFix"/>
<feColorMatrix in="SourceAlpha" type="matrix" values="0 0 0 0 0 0 0 0 0 0 0 0 0 0 0 0 0 0 127 0" result="hardAlpha"/>
<feOffset dy="4"/>
<feGaussianBlur stdDeviation="2"/>
<feComposite in2="hardAlpha" operator="out"/>
<feColorMatrix type="matrix" values="0 0 0 0 0 0 0 0 0 0 0 0 0 0 0 0 0 0 0.25 0"/>
<feBlend mode="normal" in2="BackgroundImageFix" result="effect1_dropShadow_149_864"/>
<feBlend mode="normal" in="SourceGraphic" in2="effect1_dropShadow_149_864" result="shape"/>
</filter>
</defs>
</svg>
