<svg width="317" height="25" viewBox="0 0 317 25" fill="none" xmlns="http://www.w3.org/2000/svg">
<path d="M157.264 18.1839C149.722 10.49 135.611 10.49 125.617 10.3268C108.303 10.0615 91.2323 14.4696 74.2632 17.1839C56.8075 19.9798 37.5069 25.8778 19.8079 22.7145C14.111 21.6941 7.56261 19.0615 4.11608 14.1839C-1.94576 5.59207 14.0299 -1.20385 15.0842 8.49003C15.3883 11.2043 19.6458 11.2043 19.3214 8.49003C17.9428 -3.02018 0.182977 -2.79569 0.00051349 8.939C-0.202224 22.6125 20.3351 25.1431 30.0259 25.0002C40.548 24.837 50.9687 22.3472 61.2677 20.4492C72.8643 18.3268 84.6231 16.7553 96.2602 14.8778C107.512 13.0615 119.048 11.5104 130.462 12.4288C138.43 13.0615 149.073 14.4696 154.892 20.5308C156.412 22.0819 158.764 19.7145 157.264 18.1839Z" fill="#231F20"/>
<path d="M159.737 18.1838C167.279 10.4899 181.389 10.4899 191.384 10.3266C208.678 10.0613 225.769 14.4695 242.738 17.1838C260.193 19.9797 279.494 25.8777 297.193 22.7144C302.89 21.694 309.438 19.0613 312.885 14.1838C318.967 5.59194 302.971 -1.20397 301.917 8.4899C301.613 11.2042 297.355 11.2042 297.68 8.4899C299.038 -3.0203 316.798 -2.79581 316.98 8.93888C317.183 22.6124 296.646 25.143 286.955 25.0001C276.433 24.8368 266.012 22.347 255.713 20.4491C244.116 18.3266 232.358 16.7552 220.72 14.8777C209.469 13.0613 197.933 11.5103 186.519 12.4287C178.551 13.0613 167.907 14.4695 162.089 20.5307C160.589 22.0817 158.237 19.7144 159.737 18.1838Z" fill="#231F20"/>
</svg>
