<svg width="317" height="25" viewBox="0 0 317 25" fill="none" xmlns="http://www.w3.org/2000/svg">
<path d="M159.736 6.8161C167.278 14.51 181.389 14.51 191.383 14.6732C208.697 14.9385 225.768 10.5304 242.737 7.8161C260.192 5.02018 279.493 -0.877781 297.192 2.28548C302.889 3.30589 309.437 5.93855 312.884 10.8161C318.946 19.4079 302.97 26.2039 301.916 16.51C301.612 13.7957 297.354 13.7957 297.679 16.51C299.057 28.0202 316.817 27.7957 316.999 16.061C317.202 2.38753 296.665 -0.143087 286.974 -0.000230789C276.452 0.163034 266.031 2.65283 255.732 4.55079C244.136 6.67324 232.377 8.24467 220.74 10.1222C209.488 11.9385 197.952 13.4896 186.538 12.5712C178.57 11.9385 167.927 10.5304 162.108 4.46916C160.588 2.91814 158.236 5.28548 159.736 6.8161Z" fill="#231F20"/>
<path d="M157.263 6.81622C149.721 14.5101 135.611 14.5101 125.616 14.6734C108.322 14.9387 91.2314 10.5305 74.2623 7.81622C56.8066 5.0203 37.506 -0.877659 19.807 2.28561C14.1101 3.30601 7.56171 5.93867 4.11517 10.8162C-1.96695 19.4081 14.029 26.204 15.0833 16.5101C15.3874 13.7958 19.6448 13.7958 19.3205 16.5101C17.9621 28.0203 0.202332 27.7958 0.0198669 16.0611C-0.182877 2.38765 20.3544 -0.142965 30.0453 -0.000108719C40.5673 0.163157 50.988 2.65295 61.2871 4.55091C72.8837 6.67336 84.6424 8.24479 96.2795 10.1223C107.531 11.9387 119.067 13.4897 130.481 12.5713C138.449 11.9387 149.093 10.5305 154.911 4.46928C156.411 2.91826 158.763 5.28561 157.263 6.81622Z" fill="#231F20"/>
</svg>
