<svg width="297" height="45" viewBox="0 0 297 45" fill="none" xmlns="http://www.w3.org/2000/svg">
<g clip-path="url(#clip0_149_884)">
<path d="M15.4402 23.7112C62.3858 24.4807 109.559 23.3122 156.505 23.0842C202.938 22.8562 249.344 22.9132 295.777 22.8847C297.398 22.8847 297.398 20.3483 295.777 20.3483C205.213 20.4053 114.563 19.2368 24.0275 20.3198C22.3498 20.3483 22.3498 22.9417 24.0275 22.9132C30.4253 22.8277 36.7946 22.5712 43.1924 22.2577C44.017 22.2292 44.017 21.0038 43.1924 20.9468C36.7946 20.6333 30.4253 20.3768 24.0275 20.2913C22.3498 20.2628 22.3498 22.8562 24.0275 22.8847C114.592 23.9677 205.213 22.7992 295.777 22.8562C297.398 22.8562 297.398 20.3198 295.777 20.3198C249.344 20.3198 202.938 20.3768 156.505 20.1488C109.559 19.8923 62.3858 18.7524 15.4402 19.5218C12.7673 19.5788 12.7673 23.6542 15.4402 23.7112Z" fill="#623518"/>
<path d="M296.005 19.8923C282.498 15.6459 272.177 9.20514 261.201 0.313435C260.262 -0.45604 258.699 0.227938 259.068 1.56739C260.888 8.32167 262.423 18.8093 268.992 22.7137C269.674 23.1127 270.47 22.3147 270.072 21.6307C266.12 14.8479 263.589 8.46416 261.542 0.883416C260.831 1.3109 260.12 1.70989 259.381 2.13737C269.674 10.4306 281.93 20.9752 295.749 21.6307C296.801 21.6877 296.943 20.1773 296.005 19.8923Z" fill="#623518"/>
<path d="M268.253 21.1462C261.258 25.1076 259.04 36.3647 258.784 43.7175C258.727 44.9429 260.206 45.3134 261.002 44.6294C266.66 39.8701 273.001 36.0797 278.916 31.6339C283.92 27.872 289.237 23.9961 295.493 22.7707C296.005 22.6567 296.033 21.8017 295.493 21.7162C289.635 20.8612 283.977 24.6516 279.456 27.929C272.688 32.8308 265.58 37.3907 259.182 42.777C259.921 43.0905 260.661 43.404 261.4 43.689C261.656 35.5382 264.698 28.613 268.992 21.8587C269.276 21.4027 268.707 20.8897 268.253 21.1462Z" fill="#623518"/>
<path d="M260.917 3.93283C261.542 6.95373 262.964 9.74664 264.244 12.5395C265.324 14.905 266.063 17.4129 267.343 19.6643C268.708 22.0867 272.916 20.4338 271.893 17.7264C269.902 12.397 266.86 6.83973 262.822 2.82137C261.997 1.9664 260.689 2.82137 260.917 3.93283Z" fill="#623518"/>
<path d="M262.822 10.1456C264.642 13.7934 267.03 17.1278 270.186 19.7212C272.433 21.5452 275.163 18.8093 273.343 16.5579C271.438 14.2494 268.566 11.7985 267.229 9.1481C266.348 7.40966 263.76 8.94861 264.642 10.6585C266.661 14.5629 268.964 18.3533 272.945 20.4622C275.191 21.6592 277.324 19.3223 276.272 17.1278C274.338 13.138 270.67 11.029 267.855 7.78014C266.774 6.52619 264.727 8.15063 265.58 9.54709C268.424 14.2209 272.177 17.8118 276.84 20.6902C279.257 22.1722 281.703 18.8378 279.797 16.8428C277.039 13.9644 272.291 12.625 270.044 9.37609C268.964 7.80864 266.575 9.1766 267.485 10.8865C269.447 14.5914 272.234 16.7573 275.731 18.9233C278.973 20.9467 284.205 21.1747 286.934 23.5686C287.19 22.5427 287.475 21.5167 287.759 20.4907C281.447 22.8846 275.845 25.6775 270.3 29.5819C266.973 31.9188 260.888 36.3077 261.599 40.839C261.628 41.01 261.798 41.1525 261.969 41.2095C266.206 42.7485 269.078 37.6472 271.807 35.0537C276.556 30.4939 283.522 27.1595 289.209 23.8821C290.318 23.2266 290.29 21.8872 289.579 20.9752C287.56 18.4103 284.347 17.7833 281.503 16.4154C277.267 14.3634 273.229 12.4825 269.874 9.0911C269.39 9.91757 268.907 10.744 268.424 11.5705C272.035 12.796 274.509 16.5294 276.016 19.8067C277.125 18.6953 278.233 17.5838 279.342 16.4724C275.077 13.9359 271.523 10.5731 267.599 7.58065C267.116 8.40712 266.632 9.2336 266.149 10.0886C269.248 12.0835 271.295 15.4464 271.893 19.0088C273.087 18.0968 274.281 17.1848 275.447 16.2729C272.234 14.2209 269.817 11.428 267.059 8.86311C266.575 9.68958 266.092 10.5446 265.609 11.371C268.082 12.5395 269.447 14.6199 269.703 17.5553C270.698 17.0993 271.807 16.6433 272.888 16.2159C269.788 13.8789 267.798 10.5731 264.642 8.32163C263.476 7.46665 262.282 9.0626 262.822 10.1456Z" fill="#623518"/>
<path d="M262.367 41.8935C266.575 36.5357 267.969 29.4394 272.547 24.3666C271.324 23.4261 270.073 22.4572 268.85 21.5167C267.229 24.3666 265.58 27.1595 264.073 30.0664C262.964 32.2038 265.353 35.2532 267.627 33.6288C271.978 30.5794 276.755 27.9575 280.224 23.8536C282.328 21.3742 278.831 17.7548 276.613 20.2342C273.968 23.1697 271.58 26.3045 268.196 28.385C269.419 29.6104 270.641 30.8359 271.893 32.0899C275.817 27.017 281.162 20.8042 274.366 15.7029C272.404 14.2494 270.158 16.6434 270.585 18.6098C271.409 22.3432 275.248 23.9676 278.632 24.8511C278.859 23.1127 279.115 21.3457 279.342 19.6073C277.523 19.4363 275.76 19.0088 273.94 18.8948C271.352 18.7523 270.613 22.3717 272.66 23.5971C273.94 24.3381 275.191 24.9651 276.527 25.5921C277.181 24.0246 277.835 22.4857 278.489 20.9182C276.442 20.2627 274.395 19.7213 272.291 19.2368C270.073 18.7238 268.623 21.8302 270.698 22.9987C272.575 24.0531 274.537 24.7086 276.499 25.5921C279.456 26.96 282.072 22.5997 279.087 21.1747C277.779 20.5477 276.442 19.9778 275.163 19.2653C274.736 20.8327 274.309 22.4002 273.883 23.9676C275.504 24.1101 277.011 24.5091 278.575 24.8796C281.958 25.7346 283.181 20.8897 279.996 19.7213C278.66 19.2368 276.016 18.7523 275.504 17.2703C274.253 18.2393 273.001 19.2083 271.722 20.1772C274.452 22.2007 268.48 27.7295 267.229 29.3824C265.608 31.5769 268.765 34.5123 270.926 33.0873C274.651 30.6364 277.295 27.188 280.252 23.8821C279.058 22.6852 277.835 21.4597 276.641 20.2627C273.456 24.0816 269.077 26.39 265.011 29.1544C266.206 30.3514 267.4 31.5484 268.594 32.7168C269.902 29.7244 271.409 26.8175 272.916 23.9106C274.082 21.6307 271.011 18.9233 269.22 21.0607C264.414 26.789 263.192 34.0848 260.519 40.8676C260.149 41.8365 261.713 42.7485 262.367 41.8935Z" fill="#623518"/>
<path d="M18.4824 20.5763C16.8332 17.9258 14.1888 15.6174 12.2268 13.1665C10.151 10.5731 8.44495 7.46669 6.05644 5.15827C3.26984 2.50786 -1.67779 6.01324 0.568549 9.37613C2.72958 12.5965 5.23183 15.8169 7.81939 18.6953C9.98042 21.1177 13.9328 24.2811 17.4303 23.1697C18.4824 22.8277 19.0795 21.5737 18.4824 20.5763Z" fill="#623518"/>
<path d="M14.7003 21.2032C11.6294 22.5711 9.32619 25.4496 6.79551 27.5585C4.54917 29.4109 2.33127 31.8618 1.36449 34.6547C-0.199419 39.1291 6.85238 41.0385 8.41628 36.5927C8.95654 35.0822 11.3166 33.2583 12.5677 32.0328C14.7288 29.8954 17.4301 26.903 18.3115 23.9391C18.9371 21.7162 16.5486 20.3767 14.7003 21.2032Z" fill="#623518"/>
<path d="M32.1882 19.7498C31.9322 17.6979 30.7664 16.0449 29.6006 14.4205C28.4632 12.796 26.8709 9.51865 24.3971 10.5731C22.7479 11.2286 21.2124 13.3375 22.5488 15.133C23.4587 16.3584 24.4824 17.4699 25.506 18.6098C26.5012 19.7213 27.5817 20.9183 28.8613 21.6592C30.1693 22.4287 32.4156 21.4882 32.1882 19.7498Z" fill="#623518"/>
<path d="M31.9885 19.9777C29.4578 19.4363 27.5527 22.0297 26.1594 23.7681C24.6808 25.6491 22.4913 27.929 22.5766 30.5224C22.6619 33.5433 26.8418 35.9372 29.0597 33.2013C29.6 32.5458 29.8843 32.0613 30.2256 31.2919C29.8559 32.1753 30.5952 30.7789 30.6805 30.6364C31.3061 29.6104 31.9885 28.5845 32.5572 27.53C33.5524 25.6206 35.5428 20.7187 31.9885 19.9777Z" fill="#623518"/>
<path d="M48.8223 21.0893C48.7654 21.2888 48.7086 21.4598 48.6517 21.6593C48.8223 21.3743 48.9076 21.0323 48.9076 20.6903C48.9076 20.5193 48.8792 20.3483 48.8792 20.1773C48.8223 19.5218 48.6801 18.8664 48.4811 18.2679C48.1399 17.2704 47.884 16.2444 47.4006 15.2755C46.7181 13.8505 44.7277 13.48 43.4197 14.221C41.9695 15.076 41.6852 16.7859 42.3676 18.2109C42.7941 19.0944 43.6188 19.9493 44.2159 20.7188C44.5002 21.0893 44.813 21.4028 45.1827 21.6878C45.4386 21.8873 45.666 22.0583 45.922 22.2292C46.0926 22.3432 46.2916 22.4287 46.5191 22.5142C47.2015 22.6282 47.2015 22.5997 46.4907 22.4287C47.429 22.9702 48.9076 22.3147 48.8223 21.0893Z" fill="#623518"/>
<path d="M47.5714 19.1798C46.0643 19.6928 45.2682 20.9182 44.3298 22.1152C43.9033 22.6567 43.5905 23.3122 43.2209 23.9106C43.0503 24.1671 42.9081 24.4521 42.7375 24.7086C43.3346 23.7967 42.4816 25.0221 42.2825 25.3641C40.3774 29.0975 44.8985 32.5744 47.9979 29.7815C49.2206 28.67 49.704 26.8745 50.0736 25.3071C50.3864 23.9676 50.6992 22.0297 50.2158 20.6903C49.8746 19.6358 48.7372 18.7523 47.5714 19.1798Z" fill="#623518"/>
</g>
<defs>
<clipPath id="clip0_149_884">
<rect width="297" height="45" fill="white"/>
</clipPath>
</defs>
</svg>
