<svg width="282" height="283" viewBox="0 0 282 283" fill="none" xmlns="http://www.w3.org/2000/svg">
<g filter="url(#filter0_d_149_793)">
<path d="M169.493 273.162C163.998 273.172 160.032 272.865 156.243 271.814C145.554 268.851 135.122 269.626 124.529 272.614C114.464 275.451 104.178 275.652 94.013 272.619C89.8764 271.387 85.9864 269.445 82.8009 266.618C80.1489 264.264 78.1561 261.17 75.8915 258.383C72.3487 254.032 68.6801 249.791 64.7901 245.747C59.8433 240.596 53.1453 238.524 46.8196 236.008C39.412 233.066 33.4185 228.704 29.7801 221.607C27.2539 216.672 25.6536 211.335 25.3466 205.751C25.105 201.325 24.939 196.893 24.0633 192.547C23.2833 188.658 20.8678 185.585 18.3969 182.617C15.2366 178.819 11.88 175.182 8.84552 171.289C4.03963 165.127 2.94761 158.22 4.95552 150.659C7.4264 141.374 10.5666 132.208 10.6018 122.424C10.6169 118.546 9.79664 114.768 9.37392 110.94C8.72978 105.075 8.77507 99.2297 10.1791 93.46C11.4925 88.0675 14.9347 83.8471 18.1604 79.5663C21.8189 74.7121 26.6902 71.0349 31.1288 66.9352C36.0353 62.4029 39.6586 56.9702 42.1597 50.6723C44.0971 45.7929 46.4321 40.9789 49.2704 36.5774C53.7089 29.6959 60.4573 25.8025 68.3379 23.8256C74.1805 22.3567 80.1891 21.5117 85.8253 19.2581C92.7549 16.4864 98.5471 11.9591 103.871 6.90368C107.173 3.7698 110.947 2.01423 115.219 0.877383C118.978 -0.123646 122.753 -0.0532217 126.582 0.0675053C132.078 0.243566 136.949 2.66817 142.042 4.22756C152.977 7.56767 163.922 8.91076 175.23 6.24974C181.742 4.7155 187.861 6.1441 193.965 8.98622C200.955 12.2408 205.273 18.2218 210.416 23.3779C213.853 26.8287 216.938 30.7171 221.145 33.2272C226.661 36.5221 232.277 39.6962 238.084 42.4276C244.259 45.3301 248.813 49.7266 252.316 55.4209C254.983 59.757 255.224 64.8175 256.523 69.556C257.162 71.8951 257.574 74.2945 258.078 76.6688C259.16 81.7746 261.369 86.2616 264.922 90.1551C270.996 96.8152 275.61 104.31 277.432 113.284C278.489 118.496 278.016 123.632 276.471 128.677C274.901 133.808 273.683 139.029 272.465 144.246C271.65 147.747 272.047 151.233 272.485 154.739C273.426 162.305 274.498 169.85 274.408 177.511C274.317 185.137 271.71 191.616 265.198 195.766C256.699 201.189 251.203 208.553 247.771 218.005C245.144 225.239 242.075 232.447 236.625 238.237C232.453 242.669 227.778 246.124 221.447 246.788C219.208 247.025 217.029 247.744 214.799 248.147C208.071 249.364 202.742 252.543 198.615 258.192C195.576 262.347 191.988 266.14 187.574 269.068C181.551 273.092 174.702 272.775 169.493 273.162ZM141.126 9.64519C71.4882 9.35343 14.0238 66.3769 13.0777 135.714C12.1669 202.381 66.2898 266.412 141.926 265.501C210.547 264.671 268.464 209.977 268.771 137.792C269.078 67.1616 212.006 9.947 141.126 9.64519Z" fill="#623518"/>
<path d="M141.126 9.64516C212.006 9.94698 269.073 67.1615 268.771 137.792C268.459 209.977 210.547 264.671 141.926 265.501C66.2898 266.412 12.1669 202.381 13.0777 135.714C14.0238 66.3768 71.4882 9.3534 141.126 9.64516ZM265.435 137.812C266.597 75.5571 217.079 16.929 147.869 13.1714C78.6442 9.41376 22.3574 61.7942 16.9023 126.187C10.6874 199.609 66.4659 259.027 135.701 261.799C170.424 263.187 200.975 252.03 226.303 228.051C252.114 203.618 265.042 173.361 265.435 137.812Z" fill="white"/>
<path d="M265.435 137.812C265.042 173.361 252.109 203.619 226.303 228.051C200.976 252.03 170.424 263.187 135.701 261.799C66.4659 259.027 10.6874 199.609 16.9023 126.187C22.3574 61.7944 78.6442 9.4139 147.874 13.1715C217.084 16.9292 266.597 75.5572 265.435 137.812ZM19.7959 134.039C19.7657 147.46 21.2804 156.817 23.4544 166.138C25.4976 174.896 28.5069 183.251 32.4774 191.274C38.788 204.016 47.1165 215.269 57.453 225.068C69.0928 236.104 82.2725 244.691 97.2639 250.385C114.162 256.804 131.63 259.55 149.726 258.117C169.287 256.562 187.423 250.999 204.161 240.501C211.458 235.923 217.924 230.395 224.577 225.088C230.168 220.626 234.582 214.841 238.728 209.021C247.942 196.078 254.932 182.094 258.425 166.435C260.84 155.604 261.892 144.734 261.646 133.652C261.364 121.016 259.099 108.828 255.169 96.8203C253.619 92.0818 249.729 88.8624 248.189 84.2446C248.048 83.8271 247.52 83.3291 247.102 83.2536C242.89 82.494 241.013 79.6268 240.117 75.7886C240.027 75.4013 239.73 75.0592 239.518 74.6971C239.221 74.194 238.95 73.5904 238.25 73.6407C237.566 73.691 237.334 74.2242 237.173 74.843C236.841 76.1206 236.308 77.4587 234.682 76.9607C233.062 76.4627 233.464 75.1448 233.827 73.8419C235.055 69.4505 230.898 63.4493 226.454 62.7199C222.001 61.9855 219.656 60.4714 219.968 55.5367C220.013 54.7922 220.003 54.0125 219.842 53.2831C219.313 50.8937 216.435 49.0828 214.804 50.2046C212.922 51.5024 211.201 53.2529 210.955 55.5568C210.492 59.8527 209.606 64.1838 210.773 68.5299C211.206 70.1447 211.428 71.8147 211.171 73.5099C210.542 77.6951 207.794 80.4668 204.267 80.4517C200.377 80.4366 198.339 78.1378 197.725 73.4043C197.075 68.4344 199.697 64.5359 201.786 60.4865C205.001 54.2539 203.975 50.6674 198.479 46.4419C196.502 44.9228 194.353 44.9328 192.375 46.1602C190.443 47.3624 190.554 49.3997 191.057 51.3666C191.535 53.2278 192.194 55.0538 192.561 56.9351C193.311 60.7682 191.635 63.726 188.193 65.5268C185.139 67.1265 181.722 64.9735 181.697 61.5831C181.681 59.9734 181.928 58.414 182.381 56.8798C184.022 51.3565 183.322 46.2809 179.432 41.8593C177.575 39.7466 174.395 38.9166 171.239 40.6369C168.15 42.3171 166.786 44.6662 167.349 47.6995C167.913 50.7327 169.644 53.2278 170.892 55.9441C172.814 60.1394 171.587 63.7411 167.561 65.7884C163.706 67.7502 160.203 65.7784 160.078 61.4825C159.982 58.1323 160.068 54.7771 160.057 51.4269C160.057 50.7579 160.148 50.0285 159.922 49.4349C158.362 45.3705 158.367 41.3865 159.866 37.2516C160.661 35.0583 160.153 32.7042 158.382 31.0039C156.822 29.5099 154.542 29.3691 153.002 30.4506C148.579 33.5643 145.076 37.4829 143.561 42.9509C141.277 51.2207 142.706 59.0327 146.083 66.6436C147.607 70.0793 148.926 73.4697 147.487 77.2625C146.536 79.7676 144.744 81.2666 142.072 81.488C139.526 81.6992 137.568 80.668 136.199 78.4195C134.845 76.1911 134.699 73.8117 135.152 71.3922C135.948 67.1315 136.838 62.9111 137.286 58.5699C137.955 52.0457 138.418 45.5515 137.407 39.0574C136.984 36.336 136.013 33.3782 133.104 32.513C129.702 31.4969 126.245 31.8239 123.87 35.1439C122.677 36.8139 122.013 38.6751 121.937 40.7275C121.797 44.4046 122.879 47.7447 124.464 51.0396C125.757 53.7258 127.478 56.1705 127.669 59.4754C127.755 60.9996 128.993 62.6344 128.464 64.4956C127.513 67.8609 123.538 70.9344 120.226 70.8087C117.69 70.7131 114.741 67.9766 114.384 65.0439C113.946 61.4674 113.835 57.8808 114.852 54.3244C117.217 46.0797 115.119 40.0434 108.244 35.0181C105.703 33.1569 101.546 32.9104 99.0302 34.8823C96.9166 36.5373 96.4738 38.9216 96.982 41.643C97.4702 44.2437 98.7937 46.4872 99.5435 48.9621C100.792 53.097 99.4781 56.8295 95.7894 59.1384C92.5989 61.1404 85.6291 59.2993 85.9813 54.0527C86.1675 51.266 86.4041 48.5647 87.4508 45.9741C87.8634 44.9529 88.0647 43.9117 88.0849 42.8C88.11 41.4518 87.8383 40.32 86.5902 39.5906C85.2919 38.8311 84.1445 39.314 83.0827 40.0484C77.9346 43.6048 75.6952 48.9772 75.2876 54.7922C74.9001 60.3557 74.8397 65.7281 71.5586 70.6125C70.0288 72.8912 70.8944 75.4717 73.0532 77.2927C74.3315 78.3692 75.7808 79.2495 76.9734 80.4065C79.3034 82.66 78.2315 88.0777 75.2071 88.8171C68.8512 90.3715 63.6931 85.8442 64.1711 80.0594C64.3171 78.3139 64.5435 76.5583 64.8958 74.843C65.8117 70.4012 65.2279 66.1707 63.1043 62.2068C61.5845 59.3647 58.5047 58.8466 56.4566 61.0197C55.3092 62.237 54.4939 63.7008 54.4637 65.5017C54.4034 68.7311 55.1381 71.7845 56.2905 74.7826C57.0705 76.8199 57.6291 78.9276 56.8189 81.1157C56.0187 83.2838 54.509 84.3552 52.164 83.983C49.7484 83.6007 49.834 81.7294 49.8491 79.9336C49.8591 78.7615 49.9044 77.5895 49.9195 76.4174C49.9296 75.5573 49.7887 74.7273 49.0741 74.1437C47.6047 72.9465 47.6399 71.4123 48.0928 69.7976C48.5155 68.2935 48.4702 66.8096 47.8915 65.3659C47.2373 63.7361 46.105 63.4644 44.7362 64.4755C44.077 64.9635 43.4681 65.5771 43.0001 66.2462C36.6039 75.4164 31.1589 85.0444 27.3142 95.6382C22.3523 109.326 19.806 123.345 19.7959 134.039Z" fill="#FAA618"/>
<path d="M19.7954 134.039C19.8054 123.35 22.3518 109.33 27.3187 95.638C31.1584 85.0442 36.6084 75.4212 43.0046 66.246C43.4726 65.5769 44.0815 64.9582 44.7407 64.4753C46.1145 63.4592 47.2418 63.7358 47.896 65.3657C48.4747 66.8093 48.515 68.2933 48.0973 69.7973C47.6444 71.4171 47.6092 72.9463 49.0786 74.1435C49.7932 74.727 49.9341 75.557 49.924 76.4172C49.914 77.5893 49.8636 78.7613 49.8536 79.9334C49.8385 81.7292 49.7529 83.6005 52.1685 83.9828C54.5135 84.355 56.0232 83.2836 56.8234 81.1155C57.6336 78.9223 57.075 76.8196 56.295 74.7824C55.1476 71.7843 54.4129 68.7359 54.4682 65.5015C54.5035 63.7057 55.3187 62.2418 56.4611 61.0195C58.5042 58.8414 61.589 59.3645 63.1088 62.2066C65.2324 66.1705 65.8162 70.401 64.9003 74.8427C64.548 76.5581 64.3165 78.3136 64.1756 80.0591C63.6925 85.844 68.8557 90.3712 75.2116 88.8169C78.236 88.0774 79.3129 82.6598 76.9779 80.4062C75.7853 79.2543 74.3309 78.369 73.0577 77.2925C70.8989 75.4715 70.0333 72.891 71.5631 70.6123C74.8493 65.7278 74.9096 60.3555 75.2921 54.792C75.6947 48.977 77.9391 43.6046 83.0872 40.0482C84.149 39.3138 85.2964 38.8309 86.5947 39.5904C87.8478 40.3198 88.1145 41.4567 88.0894 42.7998C88.0692 43.9115 87.8679 44.9527 87.4553 45.9739C86.4086 48.5695 86.172 51.2657 85.9858 54.0525C85.6336 59.3042 92.6034 61.1402 95.7939 59.1382C99.4776 56.8242 100.796 53.0917 99.548 48.9619C98.7982 46.4819 97.4747 44.2434 96.9866 41.6428C96.4783 38.9264 96.9211 36.537 99.0347 34.8821C101.551 32.9152 105.708 33.1617 108.249 35.0179C115.118 40.0482 117.222 46.0795 114.856 54.3242C113.835 57.8806 113.951 61.4672 114.388 65.0437C114.746 67.9764 117.7 70.7129 120.231 70.8084C123.542 70.9292 127.518 67.8607 128.469 64.4954C128.997 62.6342 127.759 60.9994 127.674 59.4752C127.483 56.1652 125.762 53.7205 124.468 51.0394C122.883 47.7496 121.801 44.4044 121.942 40.7273C122.017 38.6749 122.682 36.8137 123.874 35.1436C126.25 31.8237 129.707 31.4967 133.109 32.5128C136.017 33.378 136.984 36.3409 137.411 39.0572C138.428 45.5463 137.965 52.0454 137.291 58.5697C136.843 62.9109 135.952 67.1313 135.157 71.3919C134.709 73.8115 134.85 76.1908 136.204 78.4193C137.572 80.6678 139.525 81.699 142.076 81.4877C144.749 81.2664 146.545 79.7674 147.491 77.2623C148.93 73.4695 147.612 70.079 146.087 66.6433C142.71 59.0325 141.281 51.2205 143.566 42.9507C145.081 37.4827 148.578 33.5641 153.007 30.4504C154.547 29.3689 156.826 29.5097 158.386 31.0037C160.158 32.704 160.666 35.0581 159.871 37.2513C158.371 41.3862 158.366 45.3652 159.926 49.4347C160.153 50.0283 160.062 50.7577 160.062 51.4267C160.072 54.7769 159.987 58.1321 160.082 61.4823C160.208 65.7781 163.705 67.75 167.565 65.7882C171.591 63.7409 172.814 60.1392 170.897 55.9439C169.649 53.2225 167.917 50.7325 167.354 47.6993C166.79 44.661 168.154 42.3168 171.244 40.6367C174.399 38.9214 177.575 39.7464 179.437 41.8591C183.327 46.2807 184.026 51.3613 182.385 56.8795C181.928 58.4138 181.686 59.9732 181.701 61.5829C181.726 64.9733 185.143 67.1263 188.198 65.5266C191.64 63.7258 193.311 60.7629 192.566 56.9349C192.199 55.0536 191.539 53.2276 191.061 51.3663C190.558 49.3995 190.447 47.3673 192.38 46.16C194.357 44.9326 196.506 44.9225 198.484 46.4417C203.979 50.6671 205.006 54.2537 201.79 60.4863C199.702 64.5306 197.08 68.4341 197.729 73.4041C198.348 78.1376 200.381 80.4364 204.271 80.4515C207.799 80.4666 210.547 77.6899 211.176 73.5097C211.432 71.8145 211.211 70.1444 210.778 68.5297C209.61 64.1785 210.496 59.8525 210.959 55.5566C211.206 53.2527 212.922 51.4971 214.809 50.2043C216.439 49.0826 219.313 50.8935 219.846 53.2829C220.007 54.0073 220.022 54.7869 219.972 55.5365C219.66 60.4762 222.005 61.9903 226.459 62.7197C230.902 63.4491 235.059 69.4503 233.831 73.8417C233.469 75.1445 233.066 76.4625 234.687 76.9605C236.312 77.4585 236.846 76.1204 237.178 74.8427C237.339 74.224 237.57 73.6858 238.255 73.6405C238.954 73.5902 239.226 74.1938 239.523 74.6968C239.734 75.054 240.031 75.3961 240.122 75.7884C241.017 79.6215 242.899 82.4938 247.107 83.2534C247.524 83.3288 248.053 83.8268 248.194 84.2444C249.733 88.8622 253.623 92.0815 255.173 96.8201C259.099 108.822 261.368 121.016 261.65 133.652C261.897 144.734 260.845 155.609 258.429 166.434C254.937 182.094 247.947 196.078 238.733 209.021C234.586 214.846 230.173 220.626 224.582 225.088C217.929 230.395 211.462 235.923 204.165 240.5C187.428 250.999 169.286 256.562 149.731 258.116C131.639 259.555 114.167 256.809 97.2684 250.385C82.277 244.691 69.0973 236.104 57.4575 225.067C47.121 215.263 38.7874 204.016 32.4819 191.274C28.5064 183.251 25.497 174.895 23.4589 166.138C21.2799 156.816 19.7652 147.46 19.7954 134.039ZM176.1 189.85C176.1 194.202 176.095 198.14 176.105 202.074C176.11 204.348 176.452 206.556 177.127 208.749C178.048 211.757 181.52 212.109 183.457 210.716C184.66 209.851 185.445 208.669 186.2 207.482C187.111 206.053 187.659 205.686 189.013 207.23C192.646 211.37 194.493 211.425 198.746 207.99C199.309 207.532 199.667 206.984 200.658 207.507C205.026 209.816 206.818 209.413 209.907 205.721C212.353 202.798 212.353 202.798 214.281 206.294C216.087 209.569 218.578 210.132 221.517 207.894C223.822 206.143 225.503 203.845 226.967 201.385C227.249 200.912 227.787 200.344 227.229 199.815C226.605 199.227 225.991 199.78 225.422 200.102C221.764 202.18 221.326 201.943 221.094 197.652C221.009 196.063 221.004 194.468 221.029 192.879C221.17 184.322 222.045 175.836 223.092 167.34C223.555 163.592 224.919 161.258 228.416 159.699C232.83 157.727 236.126 154.321 238.456 150.051C239.744 147.686 240.398 145.217 239.452 142.576C238.864 140.941 237.882 139.537 236.055 139.18C230.148 138.018 224.229 142.571 223.696 148.627C223.394 152.038 225.528 154.729 228.628 154.85C231.506 154.96 234.178 152.234 234.103 149.165C234.073 147.943 234.153 146.318 232.301 146.499C230.656 146.66 231.179 147.948 231.411 149.04C231.753 150.674 230.6 151.328 229.322 151.645C227.903 151.997 226.866 151.444 226.479 149.93C225.981 147.978 227.234 145.634 229.267 144.88C231.38 144.095 233.117 144.829 234.294 146.6C235.849 148.929 234.797 153.034 232.538 154.759C228.15 158.104 223.148 160.096 217.984 161.872C214.668 163.014 211.427 164.432 208.297 166.012C205.781 167.284 203.647 169.115 203.713 172.365C203.788 176.042 207.482 179.07 210.662 178.059C212.358 177.521 213.385 176.354 213.294 174.533C213.234 173.331 212.766 172.234 211.352 171.937C209.52 171.555 209.268 170.73 210.37 169.161C210.944 168.346 211.845 168.15 212.6 167.682C213.506 167.123 214.613 165.967 215.428 166.475C216.449 167.108 215.735 168.602 215.599 169.699C214.562 178.261 213.284 186.802 212.791 195.419C212.635 198.135 211.372 199.961 209.55 201.646C208.428 202.688 207.713 202.627 207.416 200.952C206.802 197.481 206.168 194.031 206.631 190.474C206.943 188.065 207.155 185.64 207.306 183.215C207.416 181.48 206.249 180.952 205.096 181.908C203.431 183.291 201.518 184.392 200.014 185.886C199.199 186.701 198.917 186.872 197.885 186.44C193.598 184.644 191.157 185.65 189.199 189.87C187.473 193.593 186.799 197.512 187.01 201.611C187.091 203.206 186.119 204.79 184.796 204.82C183.588 204.846 183.865 202.939 183.875 201.888C183.951 195.691 184.237 189.488 184.247 183.291C184.252 180.831 184.962 178.94 186.799 177.325C188.872 175.504 190.226 173.21 190.563 170.418C190.88 167.818 189.783 165.992 187.554 165.287C183.13 163.894 178.797 166.631 178.47 171.238C178.219 174.765 177.393 178.2 177.091 181.686C176.764 185.499 174.485 187.818 171.863 190.293C171.546 189.503 171.334 188.885 171.058 188.291C169.699 185.353 167.616 183.261 164.204 183.236C160.817 183.21 158.894 185.298 157.752 188.291C156.464 191.666 155.684 195.182 154.813 198.668C154.255 200.912 153.661 203.155 152.252 205.037C150.757 207.034 148.961 206.943 147.32 205.062C143.682 200.882 145.508 191.772 147.672 188.869C148.623 187.592 149.887 187.436 151.15 188.532C151.975 189.247 152.871 190.283 153.887 189.116C154.803 188.06 154.164 186.893 153.369 185.942C151.296 183.472 146.646 183.769 144.235 186.626C143.274 187.768 142.58 189.136 141.79 190.414C140.074 193.185 140.104 193.175 138.302 190.625C137.834 189.961 137.089 189.478 136.662 188.794C133.677 183.995 127.211 185.992 125.57 190.107C124.483 192.838 124.02 195.655 124.03 198.543C124.04 202.572 122.531 206.043 120.412 209.333C120.065 209.876 119.718 210.711 118.978 210.525C118.052 210.293 118.273 209.323 118.243 208.603C118.127 206.174 118.173 203.749 118.575 201.335C119.35 196.712 120.82 192.22 121.187 187.526C121.258 186.636 121.585 185.605 120.659 184.971C119.612 184.257 118.535 184.649 117.594 185.258C115.078 186.872 113.161 189.066 111.626 191.616C111.148 192.411 110.871 193.422 109.673 193.859C109.673 190.987 109.723 188.311 109.658 185.635C109.583 182.471 110.659 179.956 113.296 178.079C115.475 176.525 116.94 174.357 117.634 171.776C118.6 168.165 115.375 164.588 111.988 165.665C108.299 166.837 105.401 169.02 104.862 173.255C104.585 175.413 104.248 177.576 104.148 179.744C104.022 182.39 103.106 184.312 100.6 185.59C98.0937 186.867 97.4848 189.066 98.5868 191.666C99.4826 189.709 100.278 187.743 102.799 187.194C102.799 187.682 102.839 188.075 102.794 188.457C102.004 195.027 101.199 201.591 100.404 208.161C100.298 209.041 99.7745 210.153 100.856 210.646C102.104 211.214 102.537 209.997 103.111 209.202C103.594 208.528 103.976 207.668 104.852 207.461C108.219 206.672 108.913 204.101 109.18 201.189C109.497 197.693 111.59 195.147 113.734 192.305C114.338 193.457 114.509 194.317 114.388 195.263C113.88 199.247 113.322 203.221 112.899 207.215C112.557 210.459 112.154 213.724 112.723 216.979C112.949 218.256 113.578 219.454 114.982 219.725C116.361 219.992 117.569 219.237 118.127 218.09C119.803 214.66 122.526 211.823 123.723 208.135C124.272 206.45 124.826 205.962 126.627 207.22C131.75 210.796 136.586 209.056 138.685 203.135C139.248 201.546 139.47 199.896 139.575 198.211C139.646 197.084 139.399 195.867 140.214 194.82C141.176 195.55 140.783 196.561 140.798 197.401C140.838 199.503 141.004 201.591 141.518 203.628C142.69 208.286 148.015 211.234 151.321 208.447C154.637 205.651 156.459 206.063 159.438 208.714C162.432 211.375 167.062 210.339 168.838 207.185C170.866 203.578 172.442 199.735 172.281 195.514C172.185 192.692 173.644 191.254 176.1 189.85ZM130.099 149.341C125.243 150.891 120.417 152.556 115.516 153.959C104.565 157.098 93.6501 160.378 82.3273 162.003C80.5056 162.264 79.172 161.917 77.8737 160.519C73.9434 156.293 69.1073 153.587 63.4057 152.49C60.8191 151.992 58.2475 151.801 55.7263 152.767C52.7723 153.904 51.474 156.323 51.8665 159.86C52.1634 162.546 54.0355 164.236 57.1857 164.568C63.0283 165.182 68.901 165.66 74.7536 165.348C77.612 165.197 78.9657 166.364 80.1886 168.557C80.8277 169.709 80.7371 170.313 79.64 170.987C74.2353 174.317 70.7177 179.206 68.4229 185.006C66.4402 190.016 65.6401 195.228 66.9686 200.52C68.0757 204.936 71.7443 206.984 75.5236 208.764C76.7112 209.323 76.3892 210.163 76.1476 211.088C75.3626 214.081 74.4467 217.049 74.341 220.188C74.2152 223.991 75.2871 227.316 78.231 229.856C80.6666 231.959 83.525 232.165 86.2173 230.747C88.8845 229.338 91.2144 227.316 91.6321 224.011C91.7932 222.718 91.3906 221.461 90.0268 220.887C89.0053 220.455 88.029 220.711 87.249 221.481C86.2224 222.497 86.006 223.79 86.8363 224.911C88.5473 227.225 86.8464 228.04 85.2209 228.765C82.8658 229.811 80.3194 229.021 78.7695 226.909C76.993 224.489 76.5049 221.677 76.7314 218.795C76.9729 215.696 77.5969 212.512 79.4287 210.032C80.5761 208.478 83.0771 209.629 84.924 209.197C89.6544 208.09 93.5243 205.857 95.3057 201.058C96.594 197.582 94.566 195.172 90.9075 195.716C90.1728 195.826 89.438 196.038 88.7385 196.299C85.1807 197.637 82.8608 200.429 80.6012 203.286C78.9305 205.394 78.8852 205.369 77.5063 202.989C75.4129 199.368 75.428 195.509 76.0017 191.53C76.8572 185.61 78.236 179.87 81.185 174.588C82.1613 172.838 83.2432 172.667 84.7328 174.005C85.85 175.011 87.0376 175.957 88.2806 176.797C91.2497 178.799 94.415 179.946 97.983 178.442C101.012 177.164 102.492 174.996 102.245 172.315C102.004 169.664 99.855 167.491 96.7853 166.862C93.3129 166.158 89.9614 166.872 86.64 167.823C85.8449 168.049 85.0096 168.421 84.2195 168.356C82.6746 168.23 81.9298 167.018 81.5825 165.675C81.2605 164.432 82.4179 164.664 83.052 164.553C100.444 161.53 117.222 156.303 133.788 150.347C135.076 149.885 136.309 149.699 137.703 149.885C149.751 151.464 161.607 150.483 173.257 147.032C174.797 146.575 176.226 145.845 177.424 144.769C179.688 142.732 179.084 139.869 176.171 138.914C173.433 138.018 170.575 137.641 167.726 137.928C157.752 138.934 148.03 141.283 138.886 145.292C134.825 147.073 131.196 147.712 127.1 146.338C125.837 145.916 124.529 145.614 123.235 145.272C114.726 143.043 106.724 139.573 98.8888 135.513C100.112 134.562 101.173 133.627 102.336 132.847C111.107 126.967 115.194 115.835 112.37 105.754C110.463 98.9429 105.899 94.8381 99.3367 92.8512C90.4898 90.17 79.3431 94.2144 73.4503 101.418C71.9858 103.209 70.8536 105.251 70.3201 107.57C69.6357 110.538 69.9578 113.425 71.1555 116.172C71.8198 117.696 73.1383 118.455 74.8643 117.962C76.6005 117.464 77.5013 116.207 77.5466 114.436C77.5919 112.681 76.4697 112.137 74.9046 112.208C73.5308 112.268 73.5106 111.242 73.4503 110.331C73.2288 107.052 74.3158 104.27 76.6559 101.941C80.0376 98.5757 84.0987 96.6138 88.6278 95.1349C94.0779 93.3542 101.526 95.8895 103.785 101.141C106.543 107.55 107.278 114.25 105.511 121.051C104.374 125.427 102.286 129.321 98.4107 131.977C95.7184 133.828 90.8219 131.64 90.6559 128.355C90.1778 118.923 89.0203 109.441 92.1756 100.2C92.3568 99.6672 92.6789 99.0083 92.0649 98.5907C91.4258 98.1581 90.9528 98.7417 90.5703 99.134C88.5976 101.141 86.2324 102.499 83.6911 103.656C81.4064 104.698 80.41 106.524 80.5157 109.119C80.6516 112.464 80.5559 115.82 80.5257 119.17C80.4855 123.642 80.4704 123.642 76.0922 124.094C73.2238 124.391 70.8888 126.061 70.3151 128.224C69.7263 130.438 71.0851 133.219 73.561 134.769C74.2655 135.211 75.0204 135.614 75.8004 135.89C81.5976 137.928 87.4754 138.853 93.5243 137.017C95.0139 136.564 96.438 136.489 97.8924 137.289C104.007 140.649 110.453 143.199 117.106 145.292C121.383 146.625 125.676 147.983 130.099 149.341ZM203.753 134.874C205.68 134.874 207.613 134.98 209.53 134.854C216.082 134.427 219.217 130.971 219.001 124.457C218.935 122.52 218.88 120.598 219.444 118.727C220.053 116.7 219.826 114.849 218.88 112.912C217.859 110.814 217.169 108.445 217.697 106.136C218.447 102.856 217.219 100.477 213.984 99.3C211.201 98.2889 208.74 96.6994 207.079 94.1289C205.172 91.1761 202.907 90.336 199.631 91.5182C197.02 92.4638 194.332 93.0675 191.595 93.4749C189.26 93.822 186.925 94.2647 184.957 95.6279C178.088 100.382 172.472 106.287 169.171 114.049C166.831 119.537 168.355 123.516 173.378 126.69C182.672 132.56 192.873 134.975 203.753 134.874ZM117.659 122.963C117.851 126.896 117.76 130.85 118.439 134.743C119.109 138.582 121.786 139.749 125.007 137.641C127.035 136.313 128.992 134.859 130.905 133.37C133.199 131.589 133.164 131.544 133.899 134.306C134.915 138.124 136.893 138.954 140.396 137.108C143.44 135.503 146.047 133.29 148.744 131.207C149.756 130.433 151.472 129.084 150.687 128.134C149.665 126.901 148.498 128.853 147.391 129.386C145.856 130.121 144.527 132.113 142.736 131.177C141.045 130.292 141.795 128.114 141.779 126.539C141.719 120.186 140.979 113.817 141.946 107.469C142.031 106.901 142.122 106.247 141.593 105.829C141.125 105.462 140.622 105.663 140.24 106.036C138.715 107.504 136.969 108.616 135.031 109.481C134.01 109.939 133.838 110.975 133.798 112.047C133.637 116.398 133.29 120.749 133.29 125.1C133.29 127.611 132.812 129.648 130.482 130.905C129.626 131.368 128.907 132.465 127.835 132.052C126.657 131.594 127.1 130.307 127.02 129.371C126.466 122.947 125.968 116.519 125.444 110.09C125.399 109.522 125.54 108.802 124.871 108.551C124.106 108.264 123.925 109.049 123.603 109.476C122.853 110.477 121.736 110.834 120.664 111.307C118.565 112.233 117.352 113.626 117.609 116.177C117.841 118.42 117.659 120.699 117.659 122.963ZM117.826 78.3639C119.431 78.1225 120.895 77.6547 120.8 75.8337C120.719 74.2139 119.793 72.9463 117.982 72.9312C115.918 72.9161 115.324 74.4453 115.209 76.1355C115.083 78.037 116.618 78.1175 117.826 78.3639ZM71.9808 92.5494C71.9758 93.5252 72.0815 94.486 73.3697 94.4005C74.3309 94.3401 75.2166 93.8925 75.2066 92.7757C75.1965 91.6942 74.341 91.2314 73.3848 91.0654C72.2324 90.8592 71.9758 91.6037 71.9808 92.5494ZM209.137 84.2393C208.941 83.3389 208.524 82.6347 207.522 82.7051C206.722 82.7604 206.063 83.2433 206.138 84.1186C206.214 84.9587 206.641 85.7635 207.618 85.8138C208.639 85.8691 208.981 85.0945 209.137 84.2393ZM145.649 87.5744C145.534 86.6589 144.92 86.171 144.009 86.0804C143.153 85.9949 142.771 86.6337 142.776 87.3229C142.781 88.3994 143.49 88.9426 144.547 88.9879C145.498 89.0332 145.519 88.2887 145.649 87.5744ZM121.187 82.1568C121.061 81.2714 120.493 80.8891 119.667 80.859C118.767 80.8288 117.982 81.1004 117.911 82.1517C117.846 83.0823 118.47 83.4848 119.315 83.4797C120.206 83.4747 120.87 83.0522 121.187 82.1568Z" fill="white"/>
<path d="M176.101 189.85C173.645 191.254 172.186 192.692 172.291 195.489C172.447 199.71 170.877 203.553 168.849 207.16C167.073 210.314 162.443 211.355 159.449 208.689C156.47 206.038 154.648 205.625 151.332 208.422C148.025 211.214 142.701 208.261 141.529 203.603C141.015 201.571 140.844 199.483 140.809 197.376C140.794 196.531 141.191 195.525 140.225 194.795C139.41 195.841 139.656 197.064 139.586 198.186C139.48 199.871 139.259 201.521 138.695 203.11C136.597 209.031 131.761 210.771 126.638 207.195C124.836 205.937 124.283 206.425 123.734 208.11C122.536 211.798 119.814 214.635 118.138 218.065C117.58 219.212 116.372 219.967 114.993 219.7C113.589 219.428 112.96 218.231 112.733 216.954C112.16 213.699 112.567 210.429 112.91 207.19C113.332 203.201 113.886 199.222 114.399 195.238C114.52 194.297 114.349 193.432 113.745 192.28C111.601 195.122 109.508 197.667 109.191 201.163C108.929 204.076 108.229 206.647 104.863 207.436C103.987 207.643 103.605 208.503 103.122 209.177C102.553 209.972 102.12 211.189 100.867 210.62C99.7852 210.132 100.309 209.016 100.414 208.135C101.209 201.566 102.015 195.001 102.805 188.432C102.85 188.05 102.81 187.657 102.81 187.169C100.288 187.718 99.4933 189.679 98.5976 191.641C97.4955 189.04 98.1094 186.842 100.611 185.565C103.117 184.287 104.033 182.365 104.158 179.719C104.259 177.551 104.596 175.388 104.873 173.23C105.411 168.99 108.31 166.807 111.999 165.64C115.385 164.563 118.611 168.14 117.645 171.751C116.956 174.332 115.491 176.5 113.307 178.054C110.67 179.931 109.593 182.451 109.669 185.61C109.729 188.286 109.684 190.962 109.684 193.834C110.882 193.397 111.158 192.386 111.636 191.591C113.171 189.04 115.089 186.847 117.605 185.233C118.546 184.629 119.623 184.237 120.669 184.946C121.595 185.58 121.268 186.611 121.198 187.501C120.825 192.194 119.361 196.687 118.586 201.309C118.178 203.724 118.138 206.143 118.254 208.578C118.289 209.297 118.063 210.268 118.989 210.5C119.733 210.686 120.076 209.851 120.423 209.308C122.541 206.018 124.051 202.547 124.041 198.518C124.031 195.63 124.494 192.808 125.581 190.082C127.222 185.967 133.688 183.97 136.672 188.769C137.1 189.453 137.84 189.936 138.313 190.6C140.114 193.15 140.089 193.155 141.8 190.389C142.59 189.111 143.285 187.738 144.246 186.601C146.656 183.744 151.311 183.447 153.38 185.917C154.175 186.867 154.819 188.034 153.898 189.091C152.887 190.258 151.986 189.222 151.16 188.507C149.897 187.411 148.634 187.567 147.683 188.844C145.519 191.747 143.697 200.852 147.331 205.037C148.966 206.918 150.763 207.009 152.263 205.012C153.672 203.135 154.265 200.887 154.824 198.643C155.695 195.152 156.475 191.636 157.763 188.266C158.905 185.278 160.833 183.185 164.214 183.21C167.621 183.241 169.71 185.328 171.068 188.266C171.345 188.859 171.557 189.478 171.874 190.268C174.5 187.793 176.775 185.469 177.102 181.661C177.404 178.175 178.229 174.734 178.481 171.213C178.808 166.61 183.141 163.869 187.564 165.262C189.794 165.961 190.891 167.793 190.574 170.393C190.237 173.185 188.878 175.479 186.81 177.3C184.973 178.914 184.263 180.811 184.258 183.266C184.248 189.463 183.961 195.66 183.886 201.863C183.871 202.914 183.594 204.821 184.807 204.795C186.13 204.77 187.106 203.181 187.021 201.586C186.81 197.486 187.484 193.573 189.21 189.845C191.168 185.62 193.608 184.619 197.896 186.415C198.927 186.847 199.209 186.676 200.025 185.861C201.529 184.362 203.436 183.266 205.107 181.882C206.255 180.927 207.422 181.455 207.316 183.19C207.165 185.615 206.954 188.039 206.642 190.449C206.179 194.005 206.813 197.461 207.427 200.927C207.724 202.602 208.439 202.663 209.561 201.621C211.383 199.931 212.646 198.105 212.802 195.394C213.295 186.777 214.573 178.235 215.61 169.674C215.741 168.577 216.46 167.083 215.439 166.449C214.623 165.941 213.516 167.103 212.61 167.657C211.856 168.119 210.955 168.316 210.381 169.136C209.279 170.705 209.531 171.53 211.362 171.912C212.776 172.209 213.244 173.306 213.305 174.508C213.4 176.329 212.369 177.501 210.673 178.034C207.493 179.045 203.799 176.017 203.723 172.34C203.658 169.09 205.792 167.259 208.308 165.987C211.438 164.407 214.684 162.989 217.995 161.847C223.158 160.071 228.155 158.079 232.549 154.734C234.808 153.014 235.86 148.904 234.305 146.575C233.127 144.804 231.391 144.075 229.278 144.854C227.244 145.609 225.991 147.953 226.49 149.905C226.877 151.424 227.914 151.972 229.333 151.62C230.606 151.303 231.764 150.649 231.421 149.014C231.19 147.923 230.672 146.635 232.312 146.474C234.164 146.293 234.083 147.918 234.114 149.14C234.189 152.209 231.517 154.935 228.638 154.824C225.539 154.704 223.405 152.018 223.707 148.602C224.24 142.545 230.158 137.993 236.066 139.155C237.898 139.517 238.879 140.916 239.463 142.551C240.409 145.191 239.76 147.661 238.467 150.026C236.137 154.296 232.84 157.702 228.427 159.674C224.93 161.238 223.566 163.567 223.103 167.315C222.056 175.806 221.181 184.297 221.04 192.853C221.014 194.443 221.019 196.038 221.105 197.627C221.331 201.923 221.774 202.159 225.433 200.077C226.001 199.755 226.615 199.197 227.239 199.79C227.798 200.318 227.26 200.887 226.978 201.36C225.508 203.819 223.833 206.113 221.528 207.869C218.584 210.107 216.098 209.544 214.291 206.269C212.359 202.773 212.359 202.773 209.918 205.696C206.828 209.393 205.037 209.79 200.669 207.482C199.682 206.958 199.325 207.507 198.756 207.964C194.504 211.395 192.657 211.345 189.024 207.205C187.67 205.661 187.122 206.028 186.211 207.456C185.456 208.644 184.666 209.826 183.468 210.691C181.536 212.084 178.063 211.732 177.137 208.724C176.468 206.531 176.126 204.323 176.116 202.049C176.091 198.14 176.101 194.202 176.101 189.85ZM199.043 197.517C199.063 197.517 199.078 197.517 199.099 197.517C199.099 195.354 199.214 193.18 199.058 191.027C198.953 189.549 197.745 188.703 196.441 188.291C195.4 187.959 194.967 188.895 194.72 189.689C193.211 194.599 193.065 199.529 194.816 204.408C195.199 205.479 195.828 206.752 197.237 206.501C198.565 206.259 198.943 204.936 199.008 203.759C199.119 201.687 199.043 199.599 199.043 197.517ZM132.425 198.331C128.49 198.165 127.025 199.941 128.148 202.708C128.515 203.608 129.053 204.453 129.587 205.273C130.774 207.109 132.319 207.346 133.965 205.867C135.852 204.172 136.647 201.928 136.969 199.463C137.211 197.622 137.11 196.616 134.896 197.944C134.045 198.452 132.792 198.281 132.425 198.331ZM169.005 196.365C166.892 196.722 165.457 198.291 163.696 198.417C160.536 198.643 160.5 200.51 160.742 202.834C160.908 204.418 161.22 205.852 163.102 206.149C165.004 206.45 166.031 205.339 166.71 203.754C167.687 201.455 168.467 199.106 169.005 196.365ZM164.536 194.347C166.635 194.297 169.549 192.592 169.554 191.405C169.569 188.905 167.843 186.611 166.011 186.691C163.892 186.787 162.146 189.403 162.071 192.335C162.02 194.217 163.238 194.262 164.536 194.347ZM131.544 195.63C132.752 195.746 133.713 195.162 134.7 194.75C135.575 194.383 136.899 194.141 136.697 192.869C136.456 191.339 136.184 189.609 134.569 188.824C133.356 188.236 132.118 188.542 131.091 189.468C129.969 190.484 129.627 191.852 129.385 193.266C129.073 195.042 129.904 195.751 131.544 195.63ZM110.383 177.883C112.869 175.559 113.916 173.215 113.634 170.318C113.569 169.629 113.71 168.572 112.794 168.446C111.838 168.316 111.329 169.302 111.108 170.041C110.398 172.41 110.237 174.86 110.383 177.883ZM185.265 175.283C187.026 173.376 187.982 171.837 188.143 169.935C188.214 169.065 187.907 168.119 186.89 168.074C185.999 168.039 185.3 168.653 185.28 169.659C185.24 171.309 185.265 172.959 185.265 175.283Z" fill="#623518"/>
<path d="M130.1 149.342C125.677 147.983 121.389 146.63 117.092 145.277C110.439 143.184 103.993 140.629 97.8782 137.274C96.4289 136.474 94.9997 136.55 93.5102 137.002C87.4613 138.833 81.5835 137.913 75.7862 135.875C75.0012 135.599 74.2514 135.196 73.5468 134.754C71.0709 133.204 69.7172 130.423 70.301 128.209C70.8747 126.046 73.2097 124.376 76.0781 124.079C80.4563 123.627 80.4714 123.627 80.5116 119.155C80.5418 115.805 80.6374 112.449 80.5015 109.104C80.3959 106.514 81.3923 104.683 83.677 103.641C86.2183 102.484 88.5835 101.121 90.5562 99.1191C90.9437 98.7267 91.4167 98.1432 92.0508 98.5758C92.6647 98.9934 92.3427 99.6523 92.1615 100.186C89.0062 109.426 90.1637 118.913 90.6417 128.34C90.8078 131.63 95.7043 133.813 98.3966 131.962C102.271 129.306 104.36 125.412 105.497 121.036C107.264 114.235 106.529 107.535 103.771 101.126C101.517 95.8746 94.0688 93.3443 88.6137 95.12C84.0795 96.5989 80.0184 98.5658 76.6417 101.926C74.3017 104.255 73.2147 107.032 73.4361 110.317C73.4965 111.227 73.5166 112.253 74.8905 112.193C76.4555 112.122 77.5778 112.666 77.5325 114.421C77.4872 116.192 76.5864 117.45 74.8502 117.948C73.1241 118.446 71.8057 117.686 71.1414 116.157C69.9437 113.41 69.6216 110.528 70.306 107.555C70.8394 105.236 71.9717 103.194 73.4361 101.403C79.329 94.1995 90.4757 90.1602 99.3225 92.8363C105.885 94.8232 110.444 98.928 112.356 105.739C115.179 115.82 111.093 126.952 102.322 132.832C101.159 133.612 100.098 134.547 98.8746 135.498C106.71 139.563 114.711 143.034 123.221 145.257C124.514 145.594 125.818 145.896 127.086 146.323C131.182 147.697 134.811 147.058 138.872 145.277C148.016 141.268 157.738 138.919 167.712 137.913C170.56 137.626 173.419 138.003 176.156 138.899C179.065 139.854 179.674 142.712 177.409 144.754C176.212 145.83 174.783 146.56 173.243 147.018C161.593 150.468 149.737 151.449 137.689 149.87C136.295 149.689 135.062 149.87 133.774 150.333C117.202 156.288 100.43 161.52 83.0378 164.538C82.4038 164.649 81.2463 164.412 81.5684 165.66C81.9156 167.003 82.6655 168.215 84.2054 168.341C84.9904 168.406 85.8258 168.034 86.6259 167.808C89.9523 166.857 93.2988 166.143 96.7711 166.847C99.8409 167.471 101.99 169.644 102.231 172.3C102.478 174.981 100.998 177.149 97.9688 178.427C94.4009 179.931 91.2355 178.784 88.2665 176.782C87.0235 175.942 85.8358 174.991 84.7187 173.99C83.2341 172.657 82.1471 172.828 81.1708 174.574C78.2269 179.855 76.843 185.595 75.9875 191.516C75.4138 195.495 75.3937 199.353 77.4922 202.975C78.8711 205.359 78.9164 205.384 80.5871 203.271C82.8466 200.414 85.1665 197.622 88.7244 196.284C89.4239 196.023 90.1586 195.811 90.8933 195.701C94.5519 195.158 96.5799 197.567 95.2916 201.043C93.5102 205.842 89.6403 208.075 84.9099 209.182C83.063 209.615 80.5619 208.463 79.4146 210.017C77.5878 212.497 76.9588 215.681 76.7172 218.78C76.4908 221.662 76.9789 224.474 78.7553 226.894C80.3053 229.006 82.8517 229.801 85.2068 228.75C86.8322 228.025 88.5332 227.211 86.8222 224.897C85.9918 223.775 86.2082 222.482 87.2348 221.466C88.0148 220.696 88.9911 220.44 90.0127 220.872C91.3764 221.451 91.779 222.708 91.618 223.996C91.2003 227.301 88.8703 229.323 86.2032 230.732C83.5109 232.15 80.6525 231.949 78.2169 229.841C75.2729 227.301 74.201 223.976 74.3269 220.173C74.4325 217.039 75.3484 214.071 76.1335 211.073C76.375 210.148 76.6971 209.308 75.5095 208.749C71.7251 206.969 68.0616 204.921 66.9545 200.505C65.6259 195.218 66.4261 190.001 68.4088 184.991C70.7036 179.191 74.2212 174.302 79.6259 170.972C80.7179 170.298 80.8136 169.694 80.1744 168.542C78.9516 166.349 77.5979 165.182 74.7395 165.333C68.8869 165.645 63.0141 165.162 57.1716 164.553C54.0264 164.221 52.1493 162.531 51.8524 159.845C51.4599 156.309 52.7633 153.884 55.7122 152.752C58.2334 151.781 60.8049 151.977 63.3916 152.475C69.0932 153.572 73.9293 156.278 77.8596 160.504C79.1579 161.902 80.4915 162.249 82.3132 161.988C93.636 160.358 104.551 157.083 115.502 153.944C120.418 152.551 125.239 150.886 130.1 149.342ZM139.526 147.712C147.482 149.02 154.648 148.19 161.693 146.032C162.604 145.755 163.867 145.559 163.641 144.18C163.43 142.898 162.504 142.133 161.17 142.108C160.174 142.088 159.157 142.163 158.176 142.334C154.14 143.039 150.099 143.758 146.194 145C144.11 145.664 141.881 146.087 139.526 147.712ZM93.3491 174.85C94.7481 174.629 96.7359 175.112 97.0177 172.903C97.2945 170.735 95.4577 170.061 93.8524 169.714C91.5727 169.226 89.2226 169.251 86.9279 169.845C86.2082 170.031 85.3829 170.227 85.2772 171.133C85.1816 171.958 85.7402 172.531 86.3642 172.974C88.4325 174.433 90.843 174.639 93.3491 174.85ZM83.7323 206.003C86.6511 205.947 88.6539 204.363 90.3649 202.346C91.0342 201.551 91.9552 200.575 91.1148 199.463C90.219 198.281 88.9509 198.87 87.9142 199.318C85.7151 200.268 84.0494 201.898 82.7208 203.865C82.3685 204.383 81.6389 204.911 81.9811 205.56C82.3132 206.199 83.1737 205.927 83.7323 206.003ZM92.8207 134.256C92.1061 132.943 90.9185 132.44 89.8969 131.756C88.9408 131.112 88.0199 130.317 86.7165 131.157C85.4584 131.967 84.3664 133.028 82.9171 133.557C82.6151 133.667 82.3182 134.2 82.2981 134.558C82.2679 135.091 82.8416 135.071 83.224 135.131C86.4749 135.654 89.6755 135.689 92.8207 134.256ZM73.9645 163.477C74.6238 163.351 75.5648 163.834 75.9422 163.004C76.3247 162.149 75.4491 161.681 74.9156 161.213C73.2449 159.739 71.2471 158.934 69.063 158.638C68.0918 158.502 66.8488 158.366 66.4915 159.553C66.1141 160.811 67.1809 161.641 68.1572 161.998C70.0141 162.672 71.9063 163.371 73.9645 163.477ZM79.787 133.873C79.787 132.032 79.7316 130.548 79.802 129.075C79.9027 127.007 78.8459 126.801 77.2909 127.47C75.5095 128.234 75.0968 130.06 76.3901 131.565C77.2003 132.505 78.2118 133.24 79.787 133.873Z" fill="#623518"/>
<path d="M203.754 134.875C192.869 134.975 182.673 132.561 173.388 126.69C168.366 123.516 166.841 119.537 169.181 114.049C172.488 106.292 178.099 100.382 184.968 95.6282C186.936 94.2649 189.271 93.8223 191.606 93.4752C194.343 93.0677 197.03 92.4641 199.642 91.5184C202.918 90.3363 205.183 91.1713 207.09 94.1291C208.751 96.6996 211.212 98.2892 213.994 99.3003C217.23 100.477 218.458 102.857 217.708 106.136C217.18 108.445 217.869 110.815 218.891 112.912C219.832 114.849 220.063 116.7 219.455 118.727C218.891 120.599 218.946 122.52 219.012 124.457C219.228 130.971 216.088 134.432 209.541 134.854C207.613 134.98 205.681 134.875 203.754 134.875ZM185.693 98.3596C184.741 98.6866 184.399 98.7218 184.163 98.8979C178.466 103.083 174.138 108.4 171.693 115.03C170.238 118.974 172.095 123.214 175.9 125.312C186.065 130.911 197.046 132.616 208.464 131.519C213.979 130.991 215.026 129.633 215.731 124.15C216.41 118.858 216.103 118.521 210.879 119.235C207.478 119.703 204.01 120.09 201.187 122.299C199.904 123.305 198.178 124.412 198.711 126.298C199.245 128.184 201.066 127.732 202.576 127.54C203.074 127.475 203.623 127.495 203.754 128.149C203.844 128.602 203.552 128.914 203.235 129.215C201.781 130.594 198.278 130.845 196.059 129.769C193.845 128.692 193.191 126.831 193.422 124.567C193.9 119.834 196.547 116.77 200.89 115.045C204.649 113.551 208.575 112.746 212.555 112.117C213.401 111.987 214.468 112.077 214.719 110.825C215.293 108.013 213.013 105.669 210.155 106.252C207.694 106.755 205.284 107.5 202.813 107.927C196.653 109.004 192.24 112.666 188.465 117.339C187.056 119.079 186.025 120.946 186.432 123.315C186.533 123.903 186.568 124.547 185.839 124.784C185.154 125.005 184.455 124.889 184.047 124.256C183.644 123.632 183.267 122.948 183.076 122.238C181.818 117.57 183.277 113.616 186.593 110.342C189.17 107.801 192.144 105.799 195.596 104.522C199.381 103.123 203.271 102.152 207.171 101.177C207.875 101.001 209.133 101.292 209.153 100.165C209.173 99.2399 208.338 98.5457 207.473 98.1332C204.629 96.77 201.786 97.092 198.938 98.1534C192.542 100.533 187.323 104.487 183.675 110.231C181.989 112.887 179.925 115.478 179.719 118.883C179.664 119.779 180.479 121.187 179.221 121.494C177.968 121.801 177.57 120.322 177.097 119.391C176.765 118.732 176.493 117.983 176.438 117.258C176.101 112.56 177.107 108.244 180.268 104.592C181.923 102.701 183.569 100.809 185.693 98.3596ZM204.212 95.0949C196.774 91.6995 180.796 104.235 179.196 114.104C184.359 103.963 192.204 97.2731 204.212 95.0949ZM214.634 104.381C207.558 99.5669 187.076 109.537 185.159 118.41C192.194 108.38 202.007 104.119 214.634 104.381ZM196.512 127.168C196.955 121.595 200.407 119.411 204.624 118.446C208.031 117.666 211.524 117.268 214.971 116.68C215.494 116.589 216.319 116.831 216.385 116.016C216.46 115.055 215.555 115.156 214.946 115.01C214.543 114.914 214.105 114.814 213.708 114.859C208.243 115.533 202.933 116.72 198.49 120.241C196.2 122.057 195.44 124.608 196.512 127.168Z" fill="#623518"/>
<path d="M117.66 122.963C117.66 120.699 117.842 118.42 117.615 116.182C117.358 113.636 118.571 112.238 120.67 111.312C121.742 110.84 122.864 110.482 123.609 109.481C123.931 109.049 124.112 108.264 124.877 108.556C125.546 108.807 125.405 109.532 125.45 110.095C125.974 116.524 126.472 122.953 127.026 129.376C127.106 130.312 126.663 131.6 127.841 132.057C128.908 132.475 129.627 131.373 130.488 130.91C132.818 129.653 133.296 127.616 133.296 125.105C133.296 120.754 133.643 116.403 133.804 112.052C133.844 110.98 134.015 109.944 135.037 109.486C136.975 108.621 138.721 107.51 140.246 106.041C140.633 105.668 141.136 105.467 141.599 105.834C142.128 106.252 142.037 106.906 141.952 107.474C140.985 113.823 141.725 120.186 141.785 126.544C141.801 128.119 141.051 130.297 142.742 131.182C144.533 132.118 145.862 130.126 147.397 129.391C148.504 128.858 149.671 126.911 150.693 128.139C151.478 129.089 149.762 130.433 148.75 131.212C146.053 133.29 143.446 135.508 140.402 137.113C136.899 138.959 134.921 138.129 133.905 134.311C133.17 131.549 133.205 131.59 130.911 133.375C128.993 134.864 127.041 136.318 125.013 137.646C121.792 139.754 119.115 138.587 118.445 134.749C117.761 130.85 117.852 126.896 117.66 122.963Z" fill="#623518"/>
<path d="M117.826 78.3641C116.618 78.1176 115.083 78.0371 115.214 76.1407C115.33 74.4505 115.923 72.9213 117.987 72.9364C119.798 72.9515 120.719 74.2141 120.805 75.8389C120.895 77.6548 119.431 78.1176 117.826 78.3641Z" fill="#FAA618"/>
<path d="M71.9807 92.5493C71.9707 91.5986 72.2324 90.8591 73.3898 91.0603C74.3409 91.2263 75.1964 91.6891 75.2115 92.7706C75.2216 93.8924 74.3359 94.3351 73.3747 94.3954C72.0814 94.486 71.9757 93.5252 71.9807 92.5493Z" fill="#FAA618"/>
<path d="M209.138 84.2393C208.982 85.0944 208.64 85.8641 207.618 85.8087C206.642 85.7584 206.214 84.9536 206.139 84.1135C206.063 83.2383 206.717 82.7553 207.523 82.7C208.524 82.6346 208.947 83.3389 209.138 84.2393Z" fill="#FAA618"/>
<path d="M145.65 87.5742C145.519 88.2885 145.499 89.033 144.548 88.9877C143.496 88.9425 142.786 88.3992 142.776 87.3227C142.771 86.6336 143.154 85.9947 144.009 86.0802C144.92 86.1708 145.534 86.6587 145.65 87.5742Z" fill="#FAA618"/>
<path d="M121.188 82.1568C120.866 83.0522 120.207 83.4747 119.316 83.4798C118.471 83.4848 117.847 83.0824 117.912 82.1518C117.982 81.1055 118.767 80.8338 119.668 80.859C120.494 80.8892 121.062 81.2715 121.188 82.1568Z" fill="#FAA618"/>
<path d="M199.043 197.517C199.043 199.599 199.123 201.687 199.012 203.759C198.952 204.931 198.57 206.259 197.241 206.501C195.832 206.752 195.203 205.479 194.82 204.408C193.064 199.529 193.21 194.599 194.725 189.689C194.971 188.895 195.399 187.959 196.446 188.291C197.749 188.708 198.957 189.549 199.063 191.027C199.219 193.18 199.103 195.353 199.103 197.517C199.078 197.517 199.058 197.517 199.043 197.517Z" fill="#FEFEFD"/>
<path d="M132.425 198.332C132.792 198.286 134.045 198.457 134.89 197.949C137.105 196.621 137.205 197.622 136.964 199.469C136.642 201.933 135.847 204.177 133.959 205.872C132.319 207.346 130.769 207.115 129.581 205.279C129.048 204.454 128.509 203.613 128.142 202.713C127.025 199.941 128.489 198.161 132.425 198.332Z" fill="#FEFEFD"/>
<path d="M169.005 196.365C168.472 199.111 167.692 201.46 166.715 203.749C166.036 205.334 165.009 206.445 163.107 206.143C161.225 205.847 160.913 204.413 160.747 202.828C160.5 200.509 160.536 198.638 163.701 198.412C165.452 198.286 166.886 196.722 169.005 196.365Z" fill="#FEFEFD"/>
<path d="M164.537 194.348C163.238 194.262 162.021 194.217 162.071 192.336C162.146 189.408 163.888 186.787 166.011 186.692C167.843 186.606 169.569 188.905 169.554 191.405C169.544 192.592 166.635 194.297 164.537 194.348Z" fill="#FEFEFD"/>
<path d="M131.544 195.63C129.904 195.746 129.073 195.042 129.38 193.266C129.627 191.852 129.969 190.484 131.086 189.468C132.113 188.543 133.351 188.236 134.564 188.824C136.174 189.609 136.451 191.339 136.692 192.869C136.894 194.141 135.57 194.383 134.695 194.75C133.713 195.167 132.747 195.751 131.544 195.63Z" fill="#FEFEFD"/>
<path d="M110.384 177.883C110.233 174.86 110.394 172.41 111.108 170.036C111.33 169.297 111.838 168.311 112.794 168.441C113.71 168.567 113.564 169.624 113.635 170.313C113.922 173.215 112.87 175.564 110.384 177.883Z" fill="#FEFEFD"/>
<path d="M185.265 175.283C185.265 172.959 185.239 171.309 185.275 169.664C185.295 168.653 185.999 168.039 186.885 168.079C187.902 168.119 188.214 169.065 188.138 169.94C187.987 171.837 187.026 173.376 185.265 175.283Z" fill="#FEFEFD"/>
<path d="M139.525 147.712C141.881 146.087 144.105 145.664 146.193 145C150.098 143.758 154.139 143.039 158.175 142.334C159.157 142.163 160.173 142.088 161.17 142.108C162.503 142.133 163.429 142.893 163.64 144.18C163.867 145.559 162.604 145.755 161.693 146.032C154.648 148.19 147.482 149.02 139.525 147.712Z" fill="#FEFEFD"/>
<path d="M93.3492 174.85C90.8431 174.644 88.4326 174.433 86.3643 172.974C85.7403 172.536 85.1817 171.963 85.2773 171.133C85.383 170.222 86.2033 170.031 86.9279 169.845C89.2227 169.251 91.5728 169.221 93.8524 169.714C95.4578 170.061 97.2946 170.735 97.0178 172.903C96.736 175.112 94.7532 174.629 93.3492 174.85Z" fill="#FEFEFD"/>
<path d="M83.7318 206.003C83.1782 205.927 82.3127 206.199 81.9755 205.555C81.6383 204.906 82.368 204.378 82.7153 203.86C84.0438 201.893 85.7095 200.263 87.9086 199.312C88.9503 198.865 90.2134 198.276 91.1092 199.458C91.9496 200.57 91.0287 201.546 90.3594 202.341C88.6534 204.363 86.6506 205.947 83.7318 206.003Z" fill="#FEFEFD"/>
<path d="M92.8207 134.256C89.6754 135.689 86.4749 135.654 83.224 135.131C82.8415 135.071 82.2678 135.091 82.298 134.558C82.3181 134.2 82.6151 133.667 82.917 133.557C84.3663 133.028 85.4583 131.967 86.7164 131.157C88.0198 130.317 88.9407 131.112 89.8969 131.756C90.9184 132.445 92.1061 132.943 92.8207 134.256Z" fill="#FEFEFD"/>
<path d="M73.9637 163.477C71.9055 163.371 70.0133 162.672 68.1513 161.993C67.1751 161.636 66.1032 160.806 66.4856 159.548C66.8429 158.361 68.0859 158.502 69.0572 158.633C71.2362 158.934 73.2391 159.739 74.9098 161.208C75.4432 161.676 76.3239 162.144 75.9364 162.999C75.564 163.834 74.6229 163.351 73.9637 163.477Z" fill="#FEFEFD"/>
<path d="M79.7869 133.873C78.2118 133.239 77.1952 132.505 76.385 131.559C75.0967 130.055 75.5094 128.229 77.2858 127.465C78.8408 126.796 79.8976 127.002 79.797 129.069C79.7315 130.553 79.7869 132.037 79.7869 133.873Z" fill="#FEFEFD"/>
<path d="M185.692 98.3593C183.564 100.809 181.923 102.7 180.283 104.597C177.122 108.249 176.116 112.565 176.453 117.263C176.503 117.988 176.775 118.742 177.112 119.396C177.585 120.332 177.983 121.806 179.236 121.499C180.494 121.192 179.679 119.788 179.734 118.888C179.94 115.482 182.004 112.892 183.69 110.236C187.338 104.491 192.556 100.537 198.953 98.1581C201.801 97.0967 204.644 96.7798 207.487 98.138C208.353 98.5505 209.188 99.2446 209.168 100.17C209.148 101.302 207.885 101.01 207.186 101.181C203.285 102.152 199.395 103.128 195.611 104.526C192.159 105.799 189.185 107.801 186.608 110.346C183.292 113.621 181.833 117.57 183.091 122.243C183.282 122.952 183.659 123.637 184.062 124.26C184.47 124.894 185.169 125.01 185.853 124.788C186.578 124.552 186.548 123.903 186.447 123.32C186.04 120.955 187.071 119.084 188.48 117.344C192.255 112.67 196.663 109.008 202.828 107.932C205.298 107.499 207.709 106.76 210.17 106.257C213.023 105.673 215.308 108.017 214.734 110.829C214.477 112.087 213.411 111.991 212.57 112.122C208.59 112.746 204.664 113.556 200.905 115.05C196.562 116.775 193.915 119.839 193.437 124.572C193.211 126.836 193.865 128.697 196.074 129.773C198.293 130.85 201.796 130.598 203.25 129.22C203.567 128.923 203.859 128.611 203.769 128.154C203.638 127.5 203.089 127.48 202.591 127.545C201.081 127.736 199.26 128.184 198.726 126.303C198.193 124.411 199.919 123.305 201.202 122.304C204.03 120.095 207.493 119.703 210.894 119.24C216.113 118.526 216.425 118.858 215.746 124.155C215.041 129.643 213.989 130.996 208.479 131.524C197.06 132.621 186.08 130.915 175.915 125.317C172.11 123.219 170.253 118.978 171.707 115.035C174.153 108.4 178.481 103.088 184.178 98.9026C184.404 98.7215 184.741 98.6863 185.692 98.3593Z" fill="#FEFEFD"/>
<path d="M204.211 95.0949C192.204 97.2781 184.359 103.963 179.195 114.104C180.796 104.235 196.773 91.6944 204.211 95.0949Z" fill="#FEFEFD"/>
<path d="M214.634 104.381C202.013 104.124 192.199 108.385 185.159 118.41C187.077 109.532 207.553 99.5668 214.634 104.381Z" fill="#FEFEFD"/>
<path d="M196.511 127.168C195.44 124.608 196.199 122.057 198.489 120.241C202.933 116.72 208.242 115.533 213.707 114.859C214.11 114.809 214.542 114.909 214.945 115.01C215.554 115.156 216.46 115.055 216.384 116.016C216.319 116.831 215.499 116.594 214.97 116.68C211.518 117.268 208.031 117.671 204.624 118.445C200.407 119.411 196.954 121.594 196.511 127.168Z" fill="#FEFEFD"/>
</g>
<defs>
<filter id="filter0_d_149_793" x="0" y="0" width="282" height="282.818" filterUnits="userSpaceOnUse" color-interpolation-filters="sRGB">
<feFlood flood-opacity="0" result="BackgroundImageFix"/>
<feColorMatrix in="SourceAlpha" type="matrix" values="0 0 0 0 0 0 0 0 0 0 0 0 0 0 0 0 0 0 127 0" result="hardAlpha"/>
<feOffset dy="4"/>
<feGaussianBlur stdDeviation="2"/>
<feComposite in2="hardAlpha" operator="out"/>
<feColorMatrix type="matrix" values="0 0 0 0 0 0 0 0 0 0 0 0 0 0 0 0 0 0 0.25 0"/>
<feBlend mode="normal" in2="BackgroundImageFix" result="effect1_dropShadow_149_793"/>
<feBlend mode="normal" in="SourceGraphic" in2="effect1_dropShadow_149_793" result="shape"/>
</filter>
</defs>
</svg>
