<svg width="198" height="198" viewBox="0 0 198 198" fill="none" xmlns="http://www.w3.org/2000/svg">
<g filter="url(#filter0_d_149_872)">
<path d="M43.6548 155.8C38.0007 152.96 35.8105 148.544 37.5051 143.654C39.2051 138.738 43.6068 136.682 49.9963 137.917C51.4351 134.109 52.9113 130.284 54.2915 126.422C54.4407 126.007 54.1529 125.271 53.8332 124.872C51.5257 122.001 49.7032 118.986 50.5772 114.889C49.6766 114.847 48.9731 114.783 48.2644 114.783C41.8163 114.778 35.3629 114.778 28.9148 114.778C28.3179 114.778 27.7157 114.804 27.1189 114.751C25.307 114.586 24.1453 113.435 24.1613 111.869C24.1773 110.308 25.371 109.099 27.1562 109.025C28.9308 108.95 30.7106 109.009 32.6824 109.009C32.6824 107.986 32.6824 107.203 32.6824 106.425C32.6824 98.1206 32.6717 89.8107 32.6877 81.5062C32.693 78.3154 33.551 77.4684 36.6951 77.4684C47.4011 77.4631 58.1071 77.4631 68.813 77.4684C72.0744 77.4684 72.8684 78.2781 72.8684 81.618C72.8737 89.9226 72.8684 98.2324 72.8684 106.537C72.8684 107.256 72.8684 107.981 72.8684 108.849C76.6946 108.849 80.3876 108.849 84.2831 108.849C83.9847 108.428 83.7342 108.023 83.4411 107.661C80.4196 103.996 79.05 99.8038 78.645 95.0576C77.2968 79.2476 84.2139 66.8681 94.6747 55.996C98.858 51.6493 103.484 47.7341 108.056 43.4779C102.759 36.2601 101.613 28.1047 104.858 19.4593C107.193 13.2269 111.658 8.97073 117.771 6.36058C130.182 1.05505 148.098 6.60029 151.572 24.2907C152.271 24.328 153.006 24.312 153.715 24.4185C155.319 24.6636 156.23 25.6331 156.209 27.2524C156.187 28.8718 155.26 29.9052 153.64 30.0011C151.663 30.1129 149.67 30.0277 147.741 30.0277C147.08 32.6219 146.659 35.1148 145.806 37.4533C143.424 43.968 138.9 48.1922 132.004 49.673C131.093 49.8701 130.491 50.1258 130.022 51.1805C129.585 52.166 128.306 52.7733 127.203 53.7108C128.477 57.4822 127.97 61.5732 126.489 65.9465C127.416 65.9465 128.104 65.9465 128.791 65.9465C135.442 65.9465 142.092 65.9998 148.737 65.9252C151.85 65.8932 154.69 66.4206 156.992 68.8869C162.497 64.4443 168.94 65.7761 175.036 66.2235C181.132 66.671 185.31 72.2748 184.9 78.1876C184.484 84.143 179.688 88.7134 173.571 88.9371C171.791 89.001 170.011 88.9478 167.991 88.9478C168.391 93.4969 168.753 97.8436 169.148 102.185C170.283 114.687 171.434 127.189 172.574 139.691C172.761 141.742 172.308 144.23 173.32 145.71C174.199 146.994 176.752 147.122 178.553 147.788C187.271 151.021 193.165 159.246 193.474 168.52C193.533 170.225 193.075 171.444 191.316 172.105C190.773 172.313 190.282 173.192 190.138 173.841C188.337 181.933 182.358 187.515 173.821 188.991C165.987 190.344 157.605 186.812 153.624 180.218C152.446 178.268 151.748 175.994 151.061 173.794C150.72 172.691 150.448 172.121 149.142 172.121C130.059 172.164 110.976 172.158 91.8876 172.126C90.6726 172.126 90.1983 172.478 89.9212 173.724C87.7257 183.643 79.4977 189.657 68.9569 189.151C59.3221 188.687 51.8295 181.539 50.5239 171.61C50.4333 170.938 50.2787 170.033 49.8205 169.703C45.0723 166.267 43.1272 161.622 43.6548 155.8ZM107.081 131.206C102.924 131.488 98.9112 131.914 94.8932 131.999C88.5783 132.132 82.2581 132.037 75.9432 132.031C70.3158 132.026 64.6191 132.521 59.4393 129.368C59.0823 130.215 58.8105 130.817 58.576 131.429C55.773 138.881 52.9699 146.334 50.1882 153.791C47.561 160.833 51.4351 166.411 58.949 166.411C101.043 166.416 143.137 166.411 185.23 166.411C185.918 166.411 186.611 166.411 187.426 166.411C187.287 165.649 187.245 165.191 187.122 164.749C185.135 157.525 178.873 152.534 171.236 152.081C168.673 151.927 167.906 151.304 167.655 148.789C166.995 142.115 166.403 135.43 165.79 128.75C164.602 115.784 163.43 102.819 162.199 89.8587C162.151 89.3366 161.703 88.5589 161.266 88.4151C158.116 87.371 155.926 85.2882 154.466 82.4171C153.033 82.7367 151.695 83.0403 150.272 83.3599C150.272 83.7754 150.24 84.1643 150.278 84.5478C150.986 91.9521 151.722 99.3564 152.42 106.761C153.07 113.707 153.901 120.642 154.269 127.599C154.786 137.395 149.084 146.163 140.078 150.073C131.12 153.967 120.829 152.007 113.918 145.114C109.9 141.129 107.736 136.245 107.081 131.206ZM84.6189 92.1652C83.1854 100.811 89.6121 108.737 98.1439 108.966C102.13 109.073 106.121 108.945 110.107 109.03C116.108 109.152 119.897 114.538 117.68 120.083C116.79 122.304 115.069 124.179 113.8 126.262C113.321 127.045 112.756 127.967 112.756 128.824C112.74 136.554 118.293 143.628 125.871 145.663C129.398 146.611 132.889 146.627 136.587 145.226C132.655 141.939 130.539 138.003 130.8 133.081C131.264 124.393 131.802 115.704 132.42 107.027C132.894 100.39 129.835 96.8048 123.201 96.1869C114.93 95.4092 106.681 94.461 98.421 93.5928C93.822 93.108 89.2125 92.6393 84.6189 92.1652ZM113.012 83.6689C112.911 83.4878 112.815 83.312 112.713 83.1309C110.87 83.1309 109.015 83.2214 107.177 83.1042C105.546 83.003 104.656 81.9643 104.645 80.329C104.635 78.683 105.578 77.7561 107.155 77.5004C107.741 77.4045 108.349 77.4684 108.946 77.4684C120.718 77.4684 132.489 77.4684 144.261 77.4684C146.323 77.4684 148.407 77.6442 150.432 77.3726C151.359 77.25 152.66 76.3871 152.894 75.5934C153.171 74.6612 152.766 73.207 152.116 72.4186C151.636 71.8327 150.299 71.7794 149.345 71.7794C137.909 71.7421 126.468 71.7528 115.031 71.7474C114.301 71.7474 113.561 71.7687 112.847 71.6516C111.253 71.3905 110.326 70.4104 110.353 68.791C110.379 67.1664 111.376 66.2235 112.948 66.0051C113.864 65.8773 114.808 65.9518 115.735 65.9518C120.792 65.9465 121.144 65.6482 121.938 60.5877C122.018 60.0604 122.135 59.5383 122.146 59.0056C122.21 55.996 121.389 53.2527 118.826 51.5215C116.817 50.1631 114.52 49.2256 112.186 48.0164C105.12 53.4125 98.5009 59.517 93.0707 66.8361C89.6867 71.4012 86.8677 76.2699 85.4182 81.8205C85.0452 83.2587 84.8533 84.7396 84.5922 86.1139C85.0398 86.311 85.1571 86.4015 85.2796 86.4175C92.9428 87.2432 100.606 88.0742 108.274 88.8519C108.706 88.8945 109.345 88.6282 109.617 88.2926C110.806 86.7904 111.893 85.219 113.012 83.6689ZM67.0651 108.891C67.0651 100.315 67.0651 91.8509 67.0651 83.3013C57.4942 83.3013 48.0352 83.3013 38.5922 83.3013C38.5922 91.9308 38.5922 100.4 38.5922 108.891C48.1471 108.891 57.5582 108.891 67.0651 108.891ZM116.033 89.6775C119.337 90.0238 122.311 90.3274 125.284 90.647C131.701 91.3342 136.747 95.7714 137.914 102.121C138.33 104.364 138.165 106.75 138.042 109.057C137.61 117.084 137.099 125.106 136.582 133.129C136.337 136.889 138.218 139.398 141.176 141.374C142.092 141.987 142.817 141.934 143.36 141.055C144.89 138.599 146.974 136.266 147.677 133.581C148.503 130.407 148.455 126.885 148.183 123.567C147.112 110.596 145.796 97.6412 144.591 84.6756C144.496 83.6636 144.218 83.1255 143.046 83.1309C135.665 83.1735 128.285 83.1362 120.904 83.1788C120.398 83.1841 119.662 83.4452 119.423 83.8287C118.256 85.6558 117.232 87.5734 116.033 89.6775ZM145.327 24.3759C144.101 15.8051 135.468 9.4608 126.286 10.1799C115.847 10.9949 108.695 18.6922 108.775 29.0209C108.845 37.8848 116.289 46.3757 124.618 46.8765C124.618 46.152 124.618 45.4382 124.618 44.7191C124.618 39.2058 124.608 33.6872 124.624 28.174C124.629 25.2602 125.503 24.3866 128.429 24.3813C134.008 24.3653 139.593 24.3759 145.327 24.3759ZM84.3737 114.783C76.0072 114.783 67.6353 114.762 59.2688 114.794C56.2952 114.804 55.288 116.573 56.8014 119.092C59.2848 123.231 62.9511 125.959 67.7632 126.065C78.7836 126.31 89.8146 126.305 100.835 126.07C105.434 125.969 109.239 123.673 111.669 119.609C113.609 116.365 112.649 114.788 108.887 114.783C100.712 114.778 92.5431 114.783 84.3737 114.783ZM84.3524 172.249C74.9893 172.249 65.8021 172.249 56.6203 172.254C57.1478 178.225 62.5301 182.977 69.3459 183.488C76.6467 184.037 82.5992 179.68 84.3524 172.249ZM156.699 172.249C157.914 179.291 163.984 183.877 171.322 183.499C178.159 183.142 183.914 178.178 184.255 172.249C175.116 172.249 165.977 172.249 156.699 172.249ZM169.121 83.0989C169.121 83.1042 169.121 83.1042 169.121 83.1096C170.714 83.1096 172.313 83.1948 173.896 83.0936C176.864 82.8965 179.043 80.5314 179.097 77.575C179.155 74.6026 177.066 72.0191 174.13 71.8646C170.757 71.6888 167.357 71.6942 163.984 71.8699C161.074 72.0244 159.156 74.4055 159.145 77.4365C159.134 80.5367 161.133 82.8645 164.144 83.0829C165.796 83.2001 167.464 83.0989 169.121 83.0989ZM130.422 43.9094C136.358 43.8295 141.836 36.9472 141.373 30.1715C137.765 30.1715 134.147 30.1715 130.422 30.1715C130.422 34.8272 130.422 39.3656 130.422 43.9094ZM45.44 150.1C46.2873 147.825 47.0867 145.689 47.8967 143.516C45.2482 142.946 43.5802 143.713 42.9727 145.599C42.3598 147.495 43.1539 149.05 45.44 150.1Z" fill="#623518"/>
<path d="M38.5386 8.83371e-05C55.5648 0.042703 70.1236 12.1133 72.5163 28.8555C74.3016 41.3523 69.1857 51.4147 59.2578 58.787C56.3322 60.9603 55.2397 63.0325 55.6234 66.3884C55.8099 68.029 55.8312 69.7336 55.5861 71.3583C55.4369 72.3544 54.8667 73.7234 54.094 74.0803C53.2253 74.4852 51.6799 74.2934 50.838 73.7394C47.9603 71.8377 45.2052 69.7336 42.5247 67.5603C41.0486 66.3671 39.5511 65.9036 37.6433 65.893C21.6723 65.7864 7.17209 53.8863 4.50758 38.1455C2.2694 24.935 7.55044 14.505 18.0326 6.60003C23.9478 2.13615 31.126 -0.0158922 38.5386 8.83371e-05ZM49.9533 65.9676C49.9533 64.4547 50.0599 63.4533 49.932 62.4891C49.5217 59.3676 50.6834 57.4819 53.5344 55.8146C63.7981 49.806 68.9566 38.3479 66.5852 27.7742C62.0395 7.52157 37.0785 -1.1292 20.4999 11.9002C12.5704 18.1273 8.51499 26.3413 10.0391 36.4942C12.144 50.5517 25.5838 61.003 39.8069 60.2679C41.1232 60.1986 42.6366 60.7632 43.7983 61.4664C45.818 62.6916 47.6405 64.247 49.9533 65.9676Z" fill="#623518"/>
<path d="M15.3413 83.1468C12.6182 83.1468 9.90037 83.1788 7.17725 83.1361C5.1842 83.1042 4.02781 82.0335 4.02248 80.3342C4.01715 78.6243 5.17887 77.4897 7.13995 77.479C12.6501 77.4471 18.1603 77.4471 23.6652 77.479C25.573 77.4897 26.8413 78.6776 26.8573 80.3023C26.8732 81.9323 25.6209 83.1042 23.6972 83.1361C20.9154 83.1788 18.1284 83.1468 15.3413 83.1468Z" fill="#623518"/>
<path d="M17.7715 94.6422C15.7785 94.6422 13.7854 94.6848 11.7924 94.6315C9.95388 94.5782 8.86676 93.4703 8.87209 91.803C8.87742 90.125 9.93256 89.0224 11.8084 88.9957C15.8584 88.9371 19.9138 88.9371 23.9638 88.9957C25.7704 89.0224 26.9161 90.2102 26.9108 91.819C26.9054 93.417 25.7331 94.5836 23.9478 94.6315C21.8908 94.6848 19.8339 94.6422 17.7715 94.6422Z" fill="#623518"/>
<path d="M20.3452 106.164C19.2155 106.164 18.0857 106.207 16.956 106.153C15.1388 106.068 13.9664 104.96 13.9184 103.367C13.8705 101.785 15.0162 100.534 16.8068 100.47C19.1942 100.379 21.5922 100.384 23.9796 100.47C25.8501 100.539 26.9265 101.684 26.9106 103.314C26.8946 104.896 25.7169 106.057 23.9316 106.148C22.7433 106.212 21.5442 106.159 20.3452 106.164Z" fill="#623518"/>
<path d="M84.235 157.797C80.7818 157.797 77.3286 157.813 73.87 157.792C70.9498 157.776 70.0332 156.865 70.0225 154.01C70.0118 151.421 69.9745 148.832 70.0332 146.243C70.1504 141.481 73.7741 137.827 78.5489 137.731C82.4657 137.651 86.3879 137.64 90.3047 137.736C94.9836 137.848 98.5913 141.481 98.7192 146.142C98.7938 148.928 98.7672 151.719 98.7299 154.505C98.6979 156.737 97.6854 157.749 95.3939 157.781C91.6742 157.834 87.9546 157.797 84.235 157.797ZM92.9479 152.06C92.9479 149.919 93.0598 147.948 92.9106 145.993C92.7987 144.501 91.7862 143.564 90.2567 143.542C86.3506 143.489 82.4391 143.489 78.5329 143.542C77.0088 143.564 75.975 144.469 75.8631 145.971C75.7192 147.926 75.8258 149.903 75.8258 151.969C76.5505 152.007 77.1367 152.055 77.7176 152.055C82.7428 152.06 87.7628 152.06 92.9479 152.06Z" fill="#623518"/>
<path d="M36.4546 21.9363C35.8151 21.3024 35.165 20.6791 34.5415 20.0292C33.0654 18.4898 33.3371 16.0501 35.117 14.9421C36.1402 14.3029 37.222 14.2496 38.3144 14.7663C38.5169 14.8622 38.6608 14.8782 38.8686 14.7717C40.2915 14.0579 41.9914 14.468 42.9507 15.7465C43.8886 16.993 43.8193 18.7508 42.7535 19.9121C42.1993 20.514 41.6024 21.0786 41.0216 21.6593C40.931 21.7498 40.8137 21.8191 40.7072 21.8936C40.7231 21.9363 40.7445 21.9789 40.7604 22.0215C40.8937 22.0215 41.0216 22.0215 41.1548 22.0215C44.6719 22.0215 48.1944 22.0268 51.7115 22.0215C53.2783 22.0215 54.4507 22.6714 55.1061 24.1043C55.3086 24.5411 55.4046 25.0631 55.4152 25.5478C55.4525 27.2205 55.4312 28.8984 55.4312 30.5764C55.4312 31.466 55.1274 32.2437 54.5572 32.9308C54.4613 33.0427 54.4027 33.2185 54.4027 33.3676C54.392 36.6969 54.408 40.0208 54.392 43.3501C54.3814 45.4702 52.8679 46.9511 50.7523 46.9511C42.6576 46.9511 34.5575 46.9511 26.4627 46.9511C24.3098 46.9511 22.8124 45.4595 22.8017 43.2968C22.791 40.8465 22.8017 38.4015 22.791 35.9511C22.791 35.7487 22.6951 35.5143 22.5726 35.3545C22.061 34.694 21.7679 33.9589 21.7679 33.1173C21.7625 30.587 21.7572 28.0568 21.7679 25.5212C21.7785 23.6249 23.2174 22.144 25.1198 22.0375C25.2957 22.0268 25.4769 22.0268 25.6527 22.0268C29.1006 22.0268 32.5484 22.0268 35.9963 22.0268C36.1349 22.0268 36.2734 22.0268 36.4173 22.0268C36.428 21.9949 36.4386 21.9629 36.4546 21.9363ZM38.6129 23.7367C34.2857 23.7367 29.9586 23.7367 25.6314 23.7367C25.4662 23.7367 25.2957 23.7367 25.1305 23.7474C24.2032 23.822 23.4732 24.5517 23.4732 25.4786C23.4625 28.0355 23.4625 30.587 23.4732 33.1439C23.4785 34.0282 24.1553 34.7686 25.0186 34.8858C25.9032 35.003 26.7611 34.465 26.9956 33.6127C27.0702 33.341 27.0809 33.048 27.0969 32.7657C27.2088 30.9919 28.7062 29.5323 30.4808 29.479C32.4845 29.4205 34.0725 30.9546 34.1152 33.0161C34.1365 34.2519 34.1098 35.4877 34.1258 36.7235C34.1365 37.8155 34.9145 38.6092 35.943 38.6039C36.9715 38.5986 37.7336 37.7996 37.7389 36.7022C37.7442 35.9671 37.7282 35.2267 37.7442 34.4916C37.7815 32.7018 39.1191 31.2742 40.9416 31.0664C42.6096 30.8747 44.2723 32.0413 44.6559 33.7352C44.7732 34.2625 44.7572 34.8165 44.7785 35.3652C44.8105 36.1269 45.1569 36.6809 45.8443 37.0005C46.9794 37.5226 48.2903 36.7502 48.3756 35.5037C48.4236 34.8272 48.5461 34.188 48.9618 33.6286C49.6599 32.7018 50.6084 32.3768 51.7382 32.3981C52.9852 32.4248 53.7153 31.6737 53.7206 30.4432C53.7206 28.8505 53.7206 27.2578 53.7206 25.665C53.7206 25.5106 53.7153 25.3561 53.6886 25.2069C53.5021 24.2801 52.7933 23.742 51.7382 23.742C47.3631 23.7314 42.988 23.7367 38.6129 23.7367ZM24.507 36.6223C24.507 36.6862 24.507 36.8088 24.507 36.9366C24.507 39.0301 24.507 41.1182 24.507 43.2116C24.507 44.5273 25.2211 45.2305 26.5373 45.2305C34.5735 45.2305 42.6149 45.2305 50.6511 45.2305C51.9673 45.2305 52.6814 44.522 52.6814 43.2063C52.6814 40.2819 52.6814 37.3574 52.6814 34.433C52.6814 34.3052 52.6708 34.1826 52.6654 34.1081C52.2818 34.1081 51.9407 34.1081 51.5996 34.1081C50.5925 34.1081 50.1448 34.5289 50.0915 35.541C49.9956 37.3201 48.642 38.6945 46.8195 38.8596C45.1356 39.0087 43.5102 37.8102 43.1585 36.1163C43.0572 35.6209 43.0839 35.0989 43.0626 34.5928C43.0146 33.5274 42.2259 32.7444 41.2241 32.7604C40.2116 32.7764 39.4548 33.586 39.4495 34.6514C39.4442 35.4238 39.4655 36.1962 39.4389 36.9686C39.3642 39.062 37.3978 40.6334 35.3408 40.2606C33.5876 39.9463 32.4259 38.5293 32.4099 36.6649C32.3992 35.4185 32.4259 34.1667 32.3992 32.9202C32.3779 31.9454 31.5839 31.1943 30.6247 31.1836C29.6655 31.173 28.8768 31.9028 28.8022 32.8776C28.7862 33.0693 28.7755 33.2558 28.7542 33.4475C28.6103 34.9124 27.5392 36.1802 26.1057 36.4998C25.6101 36.6117 25.0772 36.585 24.507 36.6223ZM38.5756 21.6273C39.5774 20.6418 40.5793 19.699 41.5278 18.7029C42.0714 18.1329 42.0021 17.1954 41.4585 16.6254C40.9043 16.0395 39.9984 15.9702 39.3536 16.4603C38.6661 16.9823 38.5276 16.9823 37.8348 16.4656C37.1794 15.9702 36.2841 16.0395 35.7299 16.6201C35.165 17.2114 35.1277 18.1595 35.6979 18.7508C36.6411 19.7309 37.611 20.6685 38.5756 21.6273Z" fill="#623518"/>
</g>
<defs>
<filter id="filter0_d_149_872" x="0" y="0" width="197.479" height="197.277" filterUnits="userSpaceOnUse" color-interpolation-filters="sRGB">
<feFlood flood-opacity="0" result="BackgroundImageFix"/>
<feColorMatrix in="SourceAlpha" type="matrix" values="0 0 0 0 0 0 0 0 0 0 0 0 0 0 0 0 0 0 127 0" result="hardAlpha"/>
<feOffset dy="4"/>
<feGaussianBlur stdDeviation="2"/>
<feComposite in2="hardAlpha" operator="out"/>
<feColorMatrix type="matrix" values="0 0 0 0 0 0 0 0 0 0 0 0 0 0 0 0 0 0 0.25 0"/>
<feBlend mode="normal" in2="BackgroundImageFix" result="effect1_dropShadow_149_872"/>
<feBlend mode="normal" in="SourceGraphic" in2="effect1_dropShadow_149_872" result="shape"/>
</filter>
</defs>
</svg>
