<svg width="202" height="195" viewBox="0 0 202 195" fill="none" xmlns="http://www.w3.org/2000/svg">
<g filter="url(#filter0_d_149_857)">
<path d="M88.3763 43.1621C84.7062 39.5152 80.9703 35.9395 77.3877 32.2107C68.9096 23.3916 70.4849 9.37844 80.6914 3.00882C86.5659 -0.659866 92.7576 -0.949643 99.0259 2.00827C100.175 2.54955 101.017 2.64796 102.215 2.04654C110.376 -2.05408 120.117 0.313346 125.642 7.63978C131.035 14.7913 130.63 24.8788 124.509 31.5491C121.331 35.0155 117.907 38.2577 114.571 41.5765C114.046 42.1014 113.378 42.4786 112.777 42.927C112.881 43.173 112.979 43.419 113.083 43.6651C113.832 43.6651 114.582 43.6651 115.331 43.6651C135.525 43.6651 155.72 43.6869 175.914 43.6541C184.895 43.6377 191.628 47.3884 195.408 55.5897C196.567 58.1047 197.136 61.09 197.196 63.8784C197.41 73.4902 197.289 83.1075 197.273 92.7248C197.268 97.8369 195.528 102.298 192.246 106.224C191.71 106.869 191.349 107.875 191.344 108.717C191.295 127.81 191.388 146.908 191.278 166C191.207 178.176 182.532 186.662 170.395 186.662C123.935 186.678 77.4697 186.673 31.0099 186.662C18.6593 186.656 10.0554 178.111 10.0007 165.699C9.93508 151.653 10.0171 137.602 9.92961 123.556C9.92414 122.402 9.38264 121.057 8.66063 120.128C5.7234 116.323 4.04966 112.107 4.03872 107.296C4.01137 92.7686 3.96215 78.2415 4.04966 63.7198C4.1153 52.8286 12.38 44.3376 23.2921 43.7252C24.315 43.6705 25.3378 43.6541 26.3607 43.6541C46.1446 43.6487 65.9286 43.6487 85.7181 43.6487C86.5221 43.6487 87.3207 43.6487 88.1247 43.6487C88.2068 43.4956 88.2943 43.3315 88.3763 43.1621ZM100.765 53.4847C75.9327 53.4847 51.1057 53.4847 26.2731 53.4901C25.3214 53.4901 24.3587 53.4847 23.4125 53.5612C18.0795 53.9767 13.917 58.1758 13.8897 63.5011C13.8131 78.1594 13.8186 92.8233 13.8842 107.482C13.9061 112.555 17.806 116.804 22.7397 117.465C27.8156 118.143 32.7274 115.054 34.0948 110.15C34.5269 108.597 34.5871 106.924 34.6856 105.295C35.3146 95.1141 43.9239 86.7434 54.1195 86.4372C65.6114 86.0928 74.7458 94.9118 74.9646 106.733C75.0959 113.824 74.9372 120.915 75.0138 128.007C75.0849 134.283 79.5427 138.821 85.4446 138.799C91.3464 138.777 95.7112 134.168 95.744 127.892C95.7659 123.665 95.6894 119.434 95.7714 115.207C95.9792 104.95 103.67 96.7489 114.122 95.5406C123.705 94.4362 133.234 101.139 135.421 110.844C136.1 113.857 136.001 117.061 136.138 120.183C136.329 124.551 138.315 127.744 142.264 129.565C148.768 132.566 156.31 128.121 156.797 120.97C157.06 117.088 157.765 113.408 160.155 110.221C164.148 104.89 169.613 103.042 176.094 103.173C183.238 103.315 187.449 99.0289 187.455 91.9485C187.466 82.8123 187.46 73.6761 187.449 64.5399C187.449 63.6597 187.433 62.7575 187.258 61.8991C186.186 56.5738 182.116 53.4956 176.078 53.4901C150.972 53.4792 125.866 53.4847 100.765 53.4847ZM19.8134 127.438C19.8134 127.793 19.8134 128.521 19.8134 129.248C19.8134 141.249 19.8025 153.255 19.8189 165.257C19.8298 172.802 23.9157 176.853 31.4803 176.853C77.601 176.853 123.727 176.853 169.848 176.853C177.407 176.853 181.487 172.802 181.493 165.246C181.504 148.466 181.498 131.692 181.493 114.912C181.493 114.185 181.433 113.463 181.416 113.042C179.223 113.042 177.265 113.042 175.301 113.042C169.514 113.048 166.96 115.47 166.643 121.254C166.085 131.478 158.323 139.357 147.881 140.292C138.233 141.156 128.874 134.272 126.872 124.551C126.287 121.719 126.446 118.728 126.314 115.803C126.041 109.701 121.523 105.185 115.763 105.284C109.965 105.388 105.606 110.008 105.573 116.12C105.546 120.554 105.672 124.988 105.518 129.417C105.092 141.435 93.8132 150.445 81.9877 148.307C71.9125 146.487 65.2668 138.373 65.1793 127.689C65.1191 120.527 65.2613 113.365 65.1027 106.208C64.9823 100.598 60.4315 96.3115 54.9235 96.2514C49.4046 96.1912 44.9085 100.374 44.4764 105.967C44.3943 107.055 44.3177 108.143 44.2084 109.231C43.3715 117.646 37.2345 124.901 29.0025 126.738C26.1364 127.372 23.0952 127.208 19.8134 127.438ZM100.552 41.3906C106.295 35.7372 112.044 30.3189 117.497 24.6163C120.62 21.3522 120.216 15.9722 117.109 12.6972C113.914 9.3347 108.74 8.93011 105.026 11.7623C101.083 14.7694 100.278 14.7749 96.3074 11.7841C92.5388 8.94651 87.4191 9.32377 84.2248 12.6808C80.9867 16.0816 80.757 21.5163 84.0389 24.9225C89.4375 30.5048 95.0221 35.8958 100.552 41.3906Z" fill="#623518"/>
</g>
<defs>
<filter id="filter0_d_149_857" x="0" y="0" width="201.321" height="194.672" filterUnits="userSpaceOnUse" color-interpolation-filters="sRGB">
<feFlood flood-opacity="0" result="BackgroundImageFix"/>
<feColorMatrix in="SourceAlpha" type="matrix" values="0 0 0 0 0 0 0 0 0 0 0 0 0 0 0 0 0 0 127 0" result="hardAlpha"/>
<feOffset dy="4"/>
<feGaussianBlur stdDeviation="2"/>
<feComposite in2="hardAlpha" operator="out"/>
<feColorMatrix type="matrix" values="0 0 0 0 0 0 0 0 0 0 0 0 0 0 0 0 0 0 0.25 0"/>
<feBlend mode="normal" in2="BackgroundImageFix" result="effect1_dropShadow_149_857"/>
<feBlend mode="normal" in="SourceGraphic" in2="effect1_dropShadow_149_857" result="shape"/>
</filter>
</defs>
</svg>
