<svg width="41" height="41" viewBox="0 0 41 41" fill="none" xmlns="http://www.w3.org/2000/svg">
<g filter="url(#filter0_d_149_771)">
<circle cx="20.5" cy="16.5" r="16.5" fill="#18FA2F"/>
</g>
<g filter="url(#filter1_d_149_771)">
<path d="M26.4562 18.1036L24.6087 16.6935C24.0339 16.2503 23.2539 16.3309 22.7612 16.8144L22.2275 17.3381C21.8169 17.0964 21.4474 16.8144 21.0779 16.4921C20.7495 16.1697 20.4621 15.7669 20.2158 15.364L20.7495 14.8402C21.2422 14.3567 21.2832 13.5912 20.8727 13.0272L19.4357 11.1739C19.1484 10.771 18.6968 10.5293 18.2041 10.5293C17.7114 10.489 17.2188 10.6904 16.8903 11.0127L15.2892 12.584C14.386 13.4704 14.1807 14.8402 14.7555 15.9683C15.5355 17.4187 16.5208 18.7079 17.6704 19.836C18.8199 20.9641 20.1747 21.9311 21.6117 22.6966C22.0633 22.9383 22.5149 23.0189 22.9665 23.0189C23.7055 23.0189 24.4855 22.7368 25.0192 22.1728L26.6204 20.6015C26.9488 20.2792 27.1541 19.7958 27.113 19.3123C27.113 18.8288 26.8667 18.3856 26.4562 18.1036ZM25.4708 19.4734L23.8697 21.0447C23.4591 21.4476 22.8433 21.5282 22.3507 21.2864C21.0369 20.6015 19.8463 19.7555 18.7789 18.7079C17.7114 17.6604 16.8493 16.4921 16.1513 15.2028C15.905 14.7193 15.9871 14.115 16.3977 13.7121L17.9988 12.1408H18.0399C18.0809 12.1408 18.0809 12.1408 18.0809 12.1811L19.3947 13.8733L18.861 14.3567C18.4504 14.7596 18.3273 15.4042 18.6146 15.928C18.9431 16.5726 19.3947 17.1367 19.8873 17.6201C20.38 18.1036 20.9548 18.5468 21.6117 18.8691C22.1454 19.1511 22.7612 19.0303 23.1718 18.6274L23.7465 18.0633L25.4298 19.3526C25.4298 19.3526 25.4708 19.3526 25.4708 19.3929V19.4734Z" fill="#FEFEFD"/>
<path d="M31.1812 13.9212C30.1959 10.2146 27.1578 7.23326 23.3399 6.30638C19.522 5.3795 15.3752 6.5884 12.7477 9.48921C9.50434 13.0346 9.09379 18.3528 11.7213 22.3817C11.516 23.8321 11.3518 25.2825 11.1465 26.7329C11.0644 27.2567 11.7213 27.6193 12.1729 27.4984C13.6098 27.0955 15.0878 26.7329 16.5248 26.33C20.425 27.9013 24.9413 27.1761 28.0615 24.3559C30.9764 21.7371 32.167 17.6278 31.1817 13.9212H31.1812ZM28.3073 21.6972C25.844 25.2427 20.9995 26.5724 17.0174 24.7995H16.9764C16.8121 24.7189 16.6069 24.6786 16.3605 24.7189C15.211 25.0412 14.0615 25.3233 12.9119 25.6456C13.0351 24.6786 13.1582 23.752 13.2814 22.785C13.3225 22.4627 13.4046 22.1001 13.2404 21.7778C13.1172 21.5764 12.953 21.3749 12.8298 21.1332C12.5424 20.6497 12.2961 20.126 12.0908 19.6022C11.4339 17.7489 11.3929 15.6942 12.0087 13.8411C13.0761 10.5777 16.1142 8.12007 19.5628 7.71718C23.1346 7.23372 26.7064 8.92585 28.5537 11.867C30.4422 14.8886 30.319 18.7561 28.3073 21.6975V21.6972Z" fill="#FEFEFD"/>
</g>
<defs>
<filter id="filter0_d_149_771" x="0" y="0" width="41" height="41" filterUnits="userSpaceOnUse" color-interpolation-filters="sRGB">
<feFlood flood-opacity="0" result="BackgroundImageFix"/>
<feColorMatrix in="SourceAlpha" type="matrix" values="0 0 0 0 0 0 0 0 0 0 0 0 0 0 0 0 0 0 127 0" result="hardAlpha"/>
<feOffset dy="4"/>
<feGaussianBlur stdDeviation="2"/>
<feComposite in2="hardAlpha" operator="out"/>
<feColorMatrix type="matrix" values="0 0 0 0 0 0 0 0 0 0 0 0 0 0 0 0 0 0 0.25 0"/>
<feBlend mode="normal" in2="BackgroundImageFix" result="effect1_dropShadow_149_771"/>
<feBlend mode="normal" in="SourceGraphic" in2="effect1_dropShadow_149_771" result="shape"/>
</filter>
<filter id="filter1_d_149_771" x="6" y="6" width="29.5215" height="29.5217" filterUnits="userSpaceOnUse" color-interpolation-filters="sRGB">
<feFlood flood-opacity="0" result="BackgroundImageFix"/>
<feColorMatrix in="SourceAlpha" type="matrix" values="0 0 0 0 0 0 0 0 0 0 0 0 0 0 0 0 0 0 127 0" result="hardAlpha"/>
<feOffset dy="4"/>
<feGaussianBlur stdDeviation="2"/>
<feComposite in2="hardAlpha" operator="out"/>
<feColorMatrix type="matrix" values="0 0 0 0 0 0 0 0 0 0 0 0 0 0 0 0 0 0 0.25 0"/>
<feBlend mode="normal" in2="BackgroundImageFix" result="effect1_dropShadow_149_771"/>
<feBlend mode="normal" in="SourceGraphic" in2="effect1_dropShadow_149_771" result="shape"/>
</filter>
</defs>
</svg>
